<svg xmlns="http://www.w3.org/2000/svg" viewBox="0 0 464.4 467.7"><style>.st0{fill:#d98c93}.st1{fill:#f4babf}.st2{fill:#757072}.st3{fill:#fff}</style><g id="Layer_1"><path class="st0" d="M408 251.5h-7.4v-14.7h7.4c23 0 41.7-18.7 41.7-41.7S431 153.4 408 153.4h-7.4v-14.7h7.4c31.1 0 56.4 25.3 56.4 56.4s-25.3 56.4-56.4 56.4z"/><path class="st1" d="M56.4 251.5h7.4v-14.7h-7.4c-23 0-41.7-18.7-41.7-41.7s18.7-41.7 41.7-41.7h7.4v-14.7h-7.4C25.3 138.7 0 164 0 195.1s25.3 56.4 56.4 56.4zM137.2 138.7h58.3v14.7h-58.3z"/><path class="st0" d="M268.8 138.7h58.3v14.7h-58.3zM95.3 138.7H56.1v117.7h88.2V138.7z"/><circle class="st0" cx="51.2" cy="103.2" r="24.5"/><path class="st1" d="M144.3 83.6L114 68.4 73.7 48.3c-10.7 8-17.6 20.9-17.6 35.3 0 24.4 19.8 44.1 44.1 44.1 24.4 0 44.1-19.8 44.1-44.1z"/><path class="st0" d="M144.3 83.6c0-24.4-19.8-44.1-44.1-44.1-9.9 0-19.1 3.3-26.5 8.8C84.1 62 98.3 72.7 114.8 78.5c9.2 3.3 19.2 5.1 29.5 5.1z"/><path class="st2" d="M254.6 45.1L232.5.9l-.4-.9-22.6 45.1 22.6 33.3 10.7-15.8z"/><path class="st3" d="M276.2 88.2l-21.6-43.1H209.5l-21.6 43.1 32.7 20.3 29-4.9z"/><path class="st1" d="M187.9 420.1v29.4c0 8.1 6.6 14.7 14.7 14.7h58.8c8.1 0 14.7-6.6 14.7-14.7v-61.8l-88.2 32.4z"/><path class="st3" d="M187.9 332.8v87.3h88.3v-85.2z"/><path fill="#f8ee98" d="M232.1 88.2h-44.2v256.4H276.2V88.2z"/><path class="st1" d="M276.2 207.5h-14.7c-4.1 0-7.4-3.3-7.4-7.4 0-4.1 3.3-7.4 7.4-7.4h14.7c4.1 0 7.4 3.3 7.4 7.4-.1 4.1-3.4 7.4-7.4 7.4zM202.6 207.5h-14.7c-4.1 0-7.4-3.3-7.4-7.4 0-4.1 3.3-7.4 7.4-7.4h14.7c4.1 0 7.4 3.3 7.4 7.4 0 4.1-3.3 7.4-7.4 7.4z"/><path d="M363.9 227l-44.1 29.4c0 24.4 19.8 44.1 44.1 44.1 24.4 0 44.1-19.8 44.1-44.1L363.9 227z" fill="#49c9ff"/><path class="st0" d="M359 138.8h-39.2v117.6H408V138.8z"/><path class="st2" d="M359 254.9h-39.2v47.9H408v-47.9z"/><circle class="st1" cx="363.9" cy="83.6" r="44.1"/><path class="st2" d="M364.4 39.5c-9.7-.3-19.4 2.8-27.5 9.3 4 11.3 14.9 19.7 27.5 19.7h41c-6-16.9-22.1-29-41-29z"/><path class="st1" d="M56.3 295.6h23.2v153.1H56.3z"/><path transform="rotate(90 57.222 458.23)" class="st2" d="M47.7 435.9h19v44.6h-19z"/><path transform="rotate(-180 132.873 372.173)" class="st1" d="M121.3 295.6h23.2v153.1h-23.2z"/><path transform="rotate(90 143.564 458.23)" class="st2" d="M134.1 435.9h19v44.6h-19z"/><path class="st2" d="M144.3 227H56.1l-14.7 28.5v88.7H159v-88.7zM319.8 295.6H343v153.1h-23.2z"/><path transform="rotate(90 320.716 458.23)" class="st0" d="M311.2 435.9h19v44.6h-19z"/><path transform="rotate(-180 396.412 372.173)" class="st2" d="M384.8 295.6H408v153.1h-23.2z"/><path transform="rotate(90 407.103 458.23)" class="st0" d="M397.6 435.9h19v44.6h-19z"/></g></svg>