<svg xmlns="http://www.w3.org/2000/svg" viewBox="0 0 214.1 213.2"><style>.st3{fill:#d98c93}.st4{fill:#fff}</style><path d="M10.5 178.3c46.6 46.6 122.1 46.6 168.7 0s46.6-122.1 0-168.7L10.5 178.3z" fill="#f3f2f2" id="Слой_2"/><g id="Layer_1"><path transform="rotate(-45.001 92.73 92.731)" fill="#f4babf" d="M21.9 32.4h141.7V153H21.9z"/><path transform="rotate(45.001 125.414 60.046)" class="st3" d="M94.1 57.4h62.6v5.3H94.1z"/><path transform="rotate(45.001 115.098 70.362)" class="st3" d="M83.8 67.7h62.6V73H83.8z"/><path transform="rotate(45.001 104.412 79.666)" class="st3" d="M74.1 76.8h60.6v5.7H74.1z"/><path class="st4" d="M55.8 128.1l.1-32.8H67V126z"/><path class="st4" d="M56.2 116.7l52.5-9.6 2 11-54.9 10z"/><path fill="#f8ee98" d="M118.1 109.9l1.7 12.8 78.3-10.4-2.9-22.5-78.3 10.3z"/><path class="st4" d="M116.9 100.2L99 114l20.8 8.7z"/><path class="st3" d="M108.8 106.4L99 114l11.4 4.8z"/><path transform="rotate(-7.52 189.402 102.007)" class="st3" d="M182.2 90.7h14.5v22.7h-14.5z"/></g></svg>