<svg xmlns="http://www.w3.org/2000/svg" viewBox="0 0 318.8 331.5"><style>.st2{fill:#757072}.st6{fill:#d98c93}.st7{fill:#f4babf}</style><g id="Layer_1"><path d="M318.8 276.9c-72.9 72.9-191.1 72.9-264.1 0s-72.9-191.1 0-264.1l264.1 264.1z" fill="#f4f4f4" id="Слой_2"/></g><g id="Слой_4"><path class="st2" d="M152.4 206.4h14v69.2h-14z"/><path transform="rotate(90 159.378 282.658)" class="st2" d="M152.4 248h14v69.2h-14z"/><path d="M91.7 227.5H227v-21.3c0-14.6-6.1-31.4-12.4-44.6-9.2-19.4-17.4-25.3-17.3-52 .1-22.1 24.8-48.7 24.8-48.7v-29S186.7 30.7 176.5 0h-34.3s-4.4 25.8-45.6 32.3v26.1s24.8 27.5 24.9 50.8c.1 26.7-8.7 35.5-18.2 51.6-7.6 13-11.6 27.8-11.6 42.9v23.8z" fill="#f8ee98"/><circle cx="287.7" cy="191.2" r="18.1" fill="none" stroke="#f4babf" stroke-width="9" stroke-miterlimit="10"/><circle cx="243.8" cy="235.7" r="18.1" fill="none" stroke="#d98c93" stroke-width="9" stroke-miterlimit="10"/><path transform="rotate(-180 243.858 205.223)" class="st6" d="M239.7 196.9h8.4v16.7h-8.4z"/><path transform="rotate(90 260.6 190.638)" class="st7" d="M256.4 182.3h8.4V199h-8.4z"/><path class="st6" d="M230.2 113.7h11.5c8.3 0 15 6.7 15 15v75.4h-26.5v-90.4z"/><path class="st7" d="M166.4 177.9v11.5c0 8.3 6.7 15 15 15h75.4v-26.5h-90.4z"/></g></svg>