<svg xmlns="http://www.w3.org/2000/svg" viewBox="0 0 225.3 212.9"><style>.st2{fill:#e0979d}.st5{fill:#f8ee98}</style><path d="M203.6 177.9c-46.6 46.6-122.1 46.6-168.7 0s-46.6-122.1 0-168.7l168.7 168.7z" fill="#f4f4f4" id="Слой_2"/><g id="Layer_1"><path class="st2" d="M44.9 134.5V89.1l74.4-7.2 74.4 7.2v45.4l-74.4 52.6z"/><path fill="#fff" d="M119.3 6.9l-106 68v9.2l106 76.1 106-76.1v-9.2z"/><path fill="#f4babf" d="M119.3 0l-106 74.9 106 75 106-75z"/><path class="st5" d="M160.7 120.6v59h6.6V116l-6.6 4.6zm5.3-11.8"/><path class="st2" d="M156.3 171h15.3v15.3h-15.3z"/><path class="st5" d="M167.3 116l-44.2-44.3-6.1 4.9 43.9 43.9 6.4-4.5z"/></g></svg>