<svg id="Call_to_action" xmlns="http://www.w3.org/2000/svg" viewBox="0 0 311.7 311.7"><style>.st2{fill:#f8ee98}.st4{fill:#757072}.st5{fill:#fff}</style><switch><g><g id="img"><path id="Эллипс_571" d="M262.9 27.5c65 65 65 170.4 0 235.4s-170.4 65-235.4 0C28 262 262.7 27.2 262.9 27.5z" fill="#f2f1f0"/><circle id="Эллипс_571-2_1_" cx="140.4" cy="140.4" r="140.4" fill="#f7c4c8"/><path class="st2" d="M109.7 154.3c-2.9-2.9-1.2-8.8 5.2-8.3 21.2 22.9 57 23.4 78.9 1.6 2-2 5.3-1.8 7.1.4 1.5 1.9 1.2 4.7-.5 6.4-12.6 12.4-29 18.6-45.4 18.6s-32.8-6.2-45.3-18.7zM21.8 182.3c0-20 16.3-36.3 36.3-36.3h4.7v9.5h-4.7c-14.8 0-26.8 12-26.8 26.8s12 26.8 26.8 26.8h4.7v9.5h-4.7c-20 0-36.3-16.3-36.3-36.3z"/><path fill="#d98c93" d="M135.6 41.7V127l18.9-18.9h65.1V41.7z"/><path class="st2" d="M89.7 145.9H58.1v75.8h56.8v-75.8z"/><path class="st4" d="M83.4 220.7H58.2v30.7h56.6v-30.7z"/><path class="st4" d="M58.2 254.2v-7.3h14.9v16.8c0-.1-10.7-5.6-14.9-9.5zM114.8 278.4v-31.6H99.9v28s8.9 2.7 14.9 3.6z"/><circle class="st5" cx="154.3" cy="74.3" r="6.2"/><circle class="st5" cx="201.4" cy="74.3" r="6.2"/><circle class="st5" cx="177.8" cy="74.3" r="6.2"/><circle class="st5" cx="86.5" cy="107.5" r="28.4"/><circle id="Эллипс_571-2" cx="140.4" cy="140.4" r="140.4" fill="none"/></g></g></switch></svg>