<svg id="Call_to_action" xmlns="http://www.w3.org/2000/svg" viewBox="0 0 311.7 311.7"><style>.st3{fill:#fff}.st4{display:none;fill:#757072}.st5{fill:#f8ee98}.st6{fill:#757072}.st7{fill:#d98c93}</style><switch><g><path id="Эллипс_571" d="M262.9 27.5c65 65 65 170.4 0 235.4s-170.4 65-235.4 0C28 262 262.7 27.2 262.9 27.5z" fill="#f2f1f0"/><circle id="Эллипс_571-2_1_" cx="140.4" cy="140.4" r="140.4" fill="#f7c4c8"/><path class="st3" d="M74 187.4h3.4c5.5 0 10.1-4.5 10.1-10.1v-17.9c0-5.5-4.5-10.1-10.1-10.1H74v-6.7h3.4c9.2 0 16.8 7.5 16.8 16.8v17.9c0 9.2-7.5 16.8-16.8 16.8H74v-6.7z"/><path class="st4" d="M233.7 187.1h3.6c6 0 10.8-4.8 10.8-10.8V157c0-6-4.8-10.8-10.8-10.8h-3.6V139h3.6c9.9 0 18 8.1 18 18v19.2c0 9.9-8.1 18-18 18h-3.6v-7.1zM200.4 194.3h-3.6c-9.9 0-18-8.1-18-18V157c0-9.9 8.1-18 18-18h3.6v7.2h-3.6c-6 0-10.8 4.8-10.8 10.8v19.2c0 6 4.8 10.8 10.8 10.8h3.6v7.3z"/><circle class="st3" cx="140.5" cy="62.8" r="21.6"/><circle class="st3" cx="223.7" cy="115.7" r="20.1"/><path class="st3" d="M71.4 150.2H39.5c-10.3 0-18.6-8.4-18.6-18.6v-41c0-2.1 1.7-3.7 3.7-3.7s3.7 1.7 3.7 3.7v41c0 6.2 5 11.2 11.2 11.2h31.9c3.9 1 2.2 7.7 0 7.4z"/><path class="st5" d="M54.9 142.6H37.1v40.2h40.2v-40.2z"/><circle class="st3" cx="57.1" cy="115.7" r="20.1"/><circle class="st6" cx="57.1" cy="87.7" r="8.5"/><circle class="st6" cx="57.2" cy="156" r="3.4"/><circle class="st6" cx="57.2" cy="169.4" r="3.4"/><path class="st7" d="M221.4 142.6h-17.9v53.6h40.2v-53.6z"/><path class="st6" d="M140.4 41.2c-5.2 0-9.9 1.8-13.6 4.8 2 5.6 7.3 9.6 13.6 9.6h6.8l13.8.3c-2.8-8.6-10.9-14.7-20.6-14.7zM203.5 195.7v21.8h40.2v-21.8"/><path class="st6" d="M203.5 265.8v-51.5h10.6v45.6zM243.7 235.4v-21.1h-10.6v31.5c0-.1 7.6-6.5 10.6-10.4z"/><path class="st7" d="M182.1 174.4c0-13.2-2.7-25.9-7.6-37.3l-12.9-38.5h-41.1l-12.9 38.5c-4.9 11.5-7.6 24.1-7.6 37.3v26.1H182.2v-26.1z"/><path class="st5" d="M147.7 126.8v-7.4l-7.2 3.7-7.2-3.7 2.9 5.9-17.3 8.9V149h43.2v-14.8z"/><path class="st6" d="M138.1 91.7h-19.2v45.6h43.2V91.7z"/><path class="st7" d="M140.5 138.5c-2 0-3.6-1.6-3.6-3.6V91.7c0-2 1.6-3.6 3.6-3.6s3.6 1.6 3.6 3.6v43.2c0 2-1.6 3.6-3.6 3.6z"/><path d="M118.9 149.6c0 11.9 9.7 21.6 21.6 21.6 11.9 0 21.6-9.7 21.6-21.6" fill="#49c9ff"/><path class="st6" d="M118.9 148.8v23.5h43.2v-23.5"/><path class="st6" d="M118.9 168.8h11.4v75.1h-11.4z"/><path class="st7" d="M130.3 244.1l-15 6v-21.3h15z"/><path class="st7" d="M108.3 253l15.5-15.5 6.5 6.6-15.4 15.4"/><path transform="rotate(-180 156.425 206.34)" class="st6" d="M150.7 168.8h11.4v75.1h-11.4z"/><path transform="rotate(134.999 161.668 248.527)" class="st7" d="M157 237.6h9.3v21.9H157z"/><path class="st6" d="M83.2 46.7c2 0 3.6 1.6 3.6 3.6v5.4c0 19.8 16.1 36 36 36H137v7.1h-14.2c-23.8 0-43.1-19.3-43.1-43.1v-5.4c-.1-2 1.5-3.6 3.5-3.6zM201.4 50.3v5.4c0 23.8-19.3 43.1-43.1 43.1h-14.2v-7.1h14.2c19.8 0 36-16.1 36-36v-5.4c0-2 1.6-3.6 3.6-3.6 1.9 0 3.5 1.6 3.5 3.6z"/><path class="st7" d="M150.7 244.1l15 6v-21.3h-15z"/><path class="st3" d="M37.1 236.3v-22.2h10.6v31.7zM77.4 265.9c-.1-11.8 0-51.8 0-51.8H66.8V260c0-.1 6.2 4.1 10.6 5.9z"/><path class="st6" d="M77.3 182.8H37l-6.7 13v40.5H84v-40.5z"/><path class="st7" d="M192 205.3c-2.1 0-3.7-1.7-3.7-3.7v-41c0-10.3 8.4-18.6 18.6-18.6h31.9c6.2 0 11.2-5 11.2-11.2v-41c0-2.1 1.7-3.7 3.7-3.7s3.7 1.7 3.7 3.7v41c0 10.3-8.4 18.6-18.6 18.6h-31.9c-6.2 0-11.2 5-11.2 11.2v41c0 2-1.6 3.7-3.7 3.7z"/><circle id="Эллипс_571-2" cx="140.4" cy="140.4" r="140.4" fill="none"/></g></switch></svg>