<svg id="Call_to_action" xmlns="http://www.w3.org/2000/svg" viewBox="0 0 311.7 311.7"><style>.st1{fill:#f7c4c8}.st2{fill:#f8ee98}.st3{fill:#757072}.st4{fill:#fff}.st5{fill:#d98c93}</style><switch><g><g id="img"><path id="Эллипс_571" d="M262.9 27.5c65 65 65 170.4 0 235.4s-170.4 65-235.4 0C28 262 262.7 27.2 262.9 27.5z" fill="#f2f1f0"/><circle id="Эллипс_571-2_1_" class="st1" cx="140.4" cy="140.4" r="140.4"/><path class="st2" d="M65.4 124.9c4.7 7.4 11.5 13.1 19.7 16.5 10.5 4.4 22.1 4.4 32.6 0 1.9-.8 4 .1 4.8 2 .8 1.9-.1 4-2 4.8-6.2 2.6-12.7 3.8-19 3.8-17.6 0-34.3-9.3-43.4-25-1.1-1.8 6-4.2 7.3-2.1z"/><path class="st2" d="M66.1 122.3h-26v62.4h46.8v-62.4z"/><path class="st3" d="M60.9 183.8H40.2v25.3h46.6v-25.3z"/><path class="st3" d="M40.2 238.7c-.1-7.7 0-33.4 0-33.4h12.3v44.5s-9.2-7.3-12.3-11.1zM86.8 270.2v-64.8H74.6v59.1c0-.1 6.1 3.4 12.2 5.7z"/><circle class="st4" cx="63.5" cy="90.6" r="23.4"/><path class="st3" d="M175.4 122.5h22.1v7.4h-22.1z"/><path class="st3" d="M217.9 122.3h16.3l9.7 23.1v39.3h-46.8v-62.4z"/><path class="st2" d="M217.9 169.2h26v15.5h-46.8v-15.5z"/><path class="st5" d="M198.3 169.9c-1.9 0-3.4-1.5-3.4-3.4v-40.8c0-1.9 1.5-3.4 3.4-3.4s3.4 1.5 3.4 3.4v40.8c0 1.9-1.5 3.4-3.4 3.4z"/><path class="st3" d="M223.1 183.8h20.7v25.3h-46.6v-25.3z"/><path class="st3" d="M243.8 236.6v-31.3h-12.3v41.8zM197.2 268.8c-.1-14.3 0-63.5 0-63.5h12.3v57.3s-8.4 5-12.3 6.2z"/><circle class="st4" cx="217.5" cy="90.6" r="23.4"/><path class="st4" d="M164.2 105.3l-5.1 11.5-18-11.5h-14.8v66.4H178.9v-66.4z"/><path class="st3" d="M160 105.3v-7.4c0-4.1-3.3-7.4-7.4-7.4-4.1 0-7.4 3.3-7.4 7.4v7.4H141V120h23.1v-14.8H160zM174 158.4c-6.4 0-12.8-1.2-19-3.8-1.9-.8-2.8-2.9-2-4.8.8-1.9 2.9-2.8 4.8-2 10.5 4.4 22.1 4.4 32.6 0s18.7-12.5 23-23c.8-1.9 2.9-2.8 4.8-2 1.9.8 2.8 2.9 2 4.8-7.9 19.2-26.6 30.8-46.2 30.8z"/><path class="st2" d="M59.6 135.7c-.8-1.9.1-4 2-4.8 1.9-.8 4 .1 4.8 2 4.4 10.5 12.5 18.7 23 23 10.5 4.4 22.1 4.4 32.6 0 1.9-.8 4 .1 4.8 2 .8 1.9-.1 4-2 4.8-6.2 2.6-12.7 3.8-19 3.8-19.6 0-38.2-11.6-46.2-30.8z"/><path class="st5" d="M257.7 200.2c0-13.6-2.8-26.5-7.8-38.3l-13.2-39.5h-11.4l-9.6 39.5c-4 13.3-7.8 24.7-7.8 38.3v41.6h49.9v-41.6z"/><circle class="st1" cx="152.6" cy="98.3" r="2.9"/><circle id="Эллипс_571-2" cx="140.4" cy="140.4" r="140.4" fill="none"/></g><path class="st3" d="M217.6 67.1c-5.5 0-10.5 1.9-14.5 5.1 2.1 6 7.8 10.3 14.5 10.3h7.3l14.7.3c-3-9.1-11.7-15.7-22-15.7z"/></g></switch></svg>