<svg id="Call_to_action" xmlns="http://www.w3.org/2000/svg" viewBox="0 0 311.7 311.7"><style>.st4{fill:#f8ee98}.st5{fill:#fff}.st6{fill:#d98c93}.st7{fill:#757072}</style><switch><g><g id="img"><path id="Эллипс_571" d="M262.9 27.5c65 65 65 170.4 0 235.4s-170.4 65-235.4 0C28 262 262.7 27.2 262.9 27.5z" fill="#f2f1f0"/><circle id="Эллипс_571-2_1_" cx="140.4" cy="140.4" r="140.4" fill="#f7c4c8"/><path class="st4" d="M99.1 153.6H76.4v68h51v-68z"/><circle class="st5" cx="101.9" cy="116.7" r="25.5"/><circle class="st5" cx="181.2" cy="116.7" r="25.5"/><path class="st4" d="M127.4 153.6h36.3v8.4h-36.3z"/><path class="st6" d="M228 242.6c0-15.5-3.2-30.2-8.9-43.6l-15-44.9h-48l-15 44.9c-5.7 13.4-8.9 28.1-8.9 43.6V273s41 3.4 54.2 0c17-4.3 41.8-23.1 41.8-23.1v-7.3z"/><path class="st7" d="M178.2 153.6h-22.6v68h50.9v-68zM181.1 91.3c-6.1 0-11.6 2.1-16 5.7 2.3 6.6 8.6 11.3 16 11.3h8l16.2.4c-3.2-10.2-12.8-17.4-24.2-17.4z"/><path class="st7" d="M155.6 221v27.7h50.9V221"/><path class="st7" d="M155.6 280v-35.4H169v33.3c0-.1-5.5 1.2-13.4 2.1zM206.5 263.9v-19.4h-13.4v26s9.5-3.7 13.4-6.6z"/><path class="st4" d="M155.5 206.9v17.2h51v-17.2z"/><path class="st7" d="M76.4 221v27.7h51V221"/><path class="st7" d="M76.4 265.4v-20.9h13.4v26.9c.1 0-9.8-3.4-13.4-6zM127.4 280.2v-35.7H114v33.8z"/><path class="st6" d="M181.2 208.8c-2.3 0-4.2-1.9-4.2-4.2v-51c0-2.3 1.9-4.2 4.2-4.2 2.3 0 4.2 1.9 4.2 4.2v51c0 2.3-1.9 4.2-4.2 4.2z"/><path class="st4" d="M29.4 100.6c2.3 0 4.2 1.9 4.2 4.2v6.4c0 23.4 19 42.4 42.4 42.4h16.7v8.4H76c-28 0-50.8-22.8-50.8-50.8v-6.4c0-2.3 1.9-4.2 4.2-4.2z"/><path class="st7" d="M252.9 104.8v6.4c0 28-22.8 50.8-50.8 50.8h-16.7v-8.4h16.7c23.4 0 42.4-19 42.4-42.4v-6.4c0-2.3 1.9-4.2 4.2-4.2s4.2 1.9 4.2 4.2z"/><path id="Эллипс_571-2" d="M140.4 0c77.5 0 140.4 62.9 140.4 140.4 0 67.5-47.6 123.9-111.2 137.3-9.4 2-19.2 3-29.2 3C62.9 280.8 0 217.9 0 140.4S62.9 0 140.4 0z" fill="none"/></g><path transform="rotate(-45.001 122.737 59.478)" class="st5" d="M118.5 50.8h8.4v17.4h-8.4z"/><path transform="rotate(45.001 216.94 72.993)" class="st5" d="M212.7 64.3h8.4v17.4h-8.4z"/><path transform="rotate(-45.001 190.57 36.169)" class="st4" d="M187.5 29.7h6.2v12.9h-6.2z"/><path transform="rotate(45.001 56.433 69.798)" class="st4" d="M52.2 61.1h8.4v17.4h-8.4z"/><circle class="st4" cx="140.9" cy="28.1" r="3.8"/><circle class="st5" cx="86.9" cy="40.1" r="3.8"/><circle class="st5" cx="162.5" cy="67.7" r="3.8"/></g></switch></svg>