<svg xmlns="http://www.w3.org/2000/svg" viewBox="0 0 213 213"><style>.st5{fill:#fff}.st6{fill:#f8ee98}</style><path d="M9.3 178c46.6 46.6 122.1 46.6 168.7 0s46.6-122.1 0-168.7L9.3 178z" fill="#f4f4f4" id="Слой_2"/><g id="Layer_1"><path transform="rotate(45.001 93.692 93.69)" fill="#f4babf" d="M27.4 27.4h132.5v132.5H27.4z"/><circle cx="93" cy="93" r="51.1" fill="#d98c93"/><path class="st5" d="M57.8 113.7c0-2.8.2-5.2.6-7.3.4-2.1 1-3.9 1.9-5.5.9-1.6 2-3 3.4-4.1 1.4-1.2 3.2-2.3 5.2-3.3 1.3-.6 2.6-1.3 3.9-1.9 1.3-.6 2.5-1.3 3.5-2 1-.8 1.9-1.6 2.5-2.6.6-1 1-2.2 1-3.6 0-1.8-.5-3.3-1.6-4.3-1.1-1.1-2.7-1.6-4.7-1.6-1.2 0-2.3.2-3.3.5s-2 .7-2.9 1.2c-.9.5-1.7 1.1-2.4 1.7-.7.6-1.4 1.2-1.9 1.8l-5-5.5c.5-.6 1.3-1.4 2.3-2.2 1-.8 2.2-1.6 3.6-2.3 1.4-.7 3-1.3 4.8-1.9 1.8-.5 3.7-.8 5.9-.8 2.3 0 4.4.3 6.2 1 1.8.6 3.3 1.5 4.6 2.7 1.2 1.2 2.2 2.5 2.8 4.2.6 1.6.9 3.4.9 5.3s-.3 3.5-.8 4.8c-.6 1.4-1.3 2.5-2.3 3.6-1 1-2.1 1.9-3.4 2.7-1.3.8-2.7 1.5-4.1 2.3-1.5.8-2.9 1.5-4 2.2-1.1.7-2.1 1.4-2.9 2.2-.8.8-1.3 1.6-1.7 2.4-.4.8-.6 1.8-.6 2.9h19.9v7.3l-31.4.1zM111.5 113.7v-9.8H93.3v-7.3l20.7-26h5.6v26h5.3v7.3h-5.3v9.8h-8.1zm-10-17.1h10.9V82.8l-10.9 13.8z"/><path class="st6" d="M147.3 92.9h-6.5c0 25.5-20.1 46.4-45.2 47.7l8.6-8.6-4.6-4.6-16.3 16.3L99.6 160l4.6-4.6-8.2-8.2c28.6-1.7 51.3-25.4 51.3-54.3zm-54.8 50.7l.5-.5v.9l-.5-.4zM85.5 59l16.3-16.3-16.3-16.2-4.6 4.6 7.6 7.6C60.6 41 38.7 64.4 38.7 92.9h6.5c0-25.4 19.9-46.2 44.9-47.7l-9.3 9.3 4.7 4.5z"/></g></svg>