<svg xmlns="http://www.w3.org/2000/svg" viewBox="0 0 155.3 139.7"><style>.st3{fill:#d98c93}</style><path d="M139.7 115.7c-32 32-83.8 32-115.7 0S-8 32 24 0l115.7 115.7z" fill="#fdf7d1" id="Слой_2"/><g id="Слой_4"><path fill="#f4babf" d="M30.5 79.7V54.1L82 49l51.5 5.1v25.6L82 110.4z"/><path fill="#f8ee98" d="M82 8.6L8.6 44.2v6.4L82 91.8l73.3-41.2v-6.4z"/><path class="st3" d="M82 3.9L8.6 44.2 82 84.6l73.3-40.4z"/><path d="M107.2 70.8v41h4.6V68.2l-4.6 2.6zm3.7-8.1" fill="#757072"/><path class="st3" d="M104.2 113.4v10.7l10.6-7.3v-10.6z"/><path d="M111.8 68.2L86.4 42.7l-5.1 2.1 25.9 26 4.6-2.6z" fill="#fff"/></g></svg>