<svg xmlns="http://www.w3.org/2000/svg" viewBox="0 0 207.2 207.3"><style>.st2{display:inline;fill:#fff}.st5{fill:#e0979d}.st5,.st6{display:inline}.st6,.st7{fill:#757072}.st8{fill:#f4babf}</style><path d="M207.2 171.8c-47.4 47.4-124.2 47.4-171.6 0S-11.8 47.6 35.6.2l171.6 171.6z" fill="#eaeaea" id="Слой_2"/><g id="Слой_4"><path class="st7" d="M114.8 138.7H136v19.9h-21.2z"/><path class="st8" d="M114.8 158.4H136l16.1 13.9H98.8z"/><path fill="#f8ee98" d="M47.6 31.3h155.7v113.2H47.6z"/><path class="st8" d="M47.6 123.3h155.7v21.2H47.6z"/><path class="st7" d="M175.3 85l12.4-3V66.4l-12.4-3c-1.3-5.8-3.6-11.3-6.7-16.2l6.6-10.9-11-11-10.9 6.6c-4.9-3.1-10.3-5.4-16.2-6.7l-3-12.4h-15.6l-3 12.4c-5.8 1.3-11.3 3.6-16.2 6.7l-10.9-6.6-11 11L84 47.2c-3.1 4.9-5.4 10.3-6.7 16.2l-12.4 3V82l12.4 3c1.3 5.8 3.6 11.3 6.7 16.2l-6.6 10.9 11 11 10.9-6.6c4.9 3.1 10.3 5.4 16.2 6.7h21.7c5.8-1.3 11.3-3.6 16.2-6.7l10.9 6.6 11-11-6.6-10.9c3-4.9 5.3-10.3 6.6-16.2z"/><circle cx="126.2" cy="74.2" r="39.1" fill="#e0979d"/><circle cx="126.2" cy="74.2" r="22.4" fill="#fff"/></g></svg>