<svg id="Слой_3" xmlns="http://www.w3.org/2000/svg" viewBox="0 0 318.8 324.9"><style>.st1{fill:#f8ee98}.st2{fill:#757072}.st3{fill:#f4babf}</style><path d="M318.8 270.2c-72.9 72.9-191.1 72.9-264.1 0s-72.9-191.1 0-264.1l264.1 264.1z" fill="#f4f4f4"/><g id="XMLID_720_"><path id="XMLID_74_" class="st1" d="M73.1 256.1V0h160.1l48 48v208.1z"/><path id="XMLID_722_" class="st2" d="M122.8 104.4h112v7.6h-112z"/><path id="XMLID_723_" class="st2" d="M122.8 136.4h112v7.6h-112z"/><path id="XMLID_724_" class="st2" d="M122.8 72.4h56V80h-56z"/><path id="XMLID_729_" class="st3" d="M234.8 0l48 48h-48z"/></g><path fill="#d98c93" d="M207.6 191.8h91v84.3h-91z"/><path class="st3" d="M289.2 191.8v-27.7c0-9.6-3.7-18.7-10.6-25.5-6.8-6.8-15.9-10.6-25.5-10.6-19.9 0-36.1 16.2-36.1 36.1v27.7h12.8v-27.7c0-12.8 10.4-23.3 23.3-23.3 6.2 0 12.1 2.4 16.4 6.8 4.4 4.4 6.8 10.2 6.8 16.4v27.7h12.9z"/><path fill="#fff" d="M246.9 260l-23.8-24 5.9-5.8 17.2 17.3 30.5-37.8 6.5 5.2z"/></svg>