<svg id="Слой_3" xmlns="http://www.w3.org/2000/svg" viewBox="0 0 203.2 203.2"><style>.st1{fill:#f8ee98}.st3{fill:#757072}</style><path d="M203.2 168.4c-46.5 46.5-121.9 46.5-168.4 0S-11.6 46.5 34.9 0l168.3 168.4z" fill="#f4f4f4"/><path fill="#f4babf" d="M58.1 17.8h118.8v129.6H58.1z"/><path class="st3" d="M84.5 41.4h65.9v5.2H84.5zM84.5 58.6h65.9v5.2H84.5zM84.5 75.9h65.9v5.2H84.5z"/><path d="M143.7 143.4V175l18-9 18 9v-32.6c-5.3 3.9-11.7 6.2-18.7 6.2-6.3-.1-12.3-2-17.3-5.2z" fill="#e0979d"/><path class="st1" d="M129.3 116.8c0 11.1 5.7 20.9 14.4 26.6 5 3.2 10.9 5.1 17.3 5.1V85.1c-17.5 0-31.7 14.2-31.7 31.7z"/><path class="st1" d="M161 85.1v63.4c7 0 13.5-2.3 18.7-6.2 7.9-5.8 13-15.1 13-25.6 0-17.4-14.2-31.6-31.7-31.6z"/><path fill="#fff" d="M161 98.5l6 12 13.3 1.9-9.7 9.4 2.3 13.3-11.9-6.3-11.9 6.3 2.3-13.3-9.6-9.4 13.3-1.9z"/></svg>