<svg id="Слой_2" xmlns="http://www.w3.org/2000/svg" viewBox="0 0 151.8 159.7"><style>.st2{fill:#f4babf}.st4{fill:#d98c93}</style><path d="M139.7 135.7c-32 32-83.8 32-115.7 0S-8 52 24 20l115.7 115.7z" fill="#fdf7d1"/><path d="M75.2 70.3c-.3 0-.6 0-.9-.1-1.9-.5-4.9-1-4.4-2.9 3.4-6.3 6.7-13.7 10.8-17.9 1.4-1.4 3.6-1.4 5-.1 1.4 1.4 1.4 3.6.1 5-3.2 3.3-4.4 7-7.1 13.3-.5 1.7-1.9 2.7-3.5 2.7z" fill="#757072"/><path class="st2" d="M147.9 0c-30.5 1.1-56.7 20.8-68.3 51.3-.9 2.3.9 4.9 3.4 4.8 30.1-.6 58.7-20.6 68.7-51.5.7-2.4-1.4-4.8-3.8-4.6z"/><path d="M80.4 55.1c.6.6 1.5 1.1 2.6 1 30.1-.6 58.7-20.6 68.7-51.5.4-1.3 0-2.6-.9-3.5-.8-.7-71.3 53.1-70.4 54z" fill="#f8ee98"/><path class="st2" d="M87.8 98.7H66.5c-2 0-3.5-1.6-3.5-3.5V81c0-2 1.6-3.5 3.5-3.5h21.3c2 0 3.5 1.6 3.5 3.5v14.2c0 1.9-1.6 3.5-3.5 3.5z"/><path class="st4" d="M58.1 63.2h38v21.3h-38zM104.1 91.6h-54l-6.5 23.8v11.7h67v-11.6z"/><path fill="#fff" d="M62.9 105.8h28.4v7.1H62.9z"/></svg>