<svg xmlns="http://www.w3.org/2000/svg" viewBox="0 0 207.2 207.2"><style>.st1{fill:#fff}.st4{fill:#e0979d}.st5{fill:#757072}</style><path d="M207.2 171.6C159.8 219 83 219 35.6 171.6S-11.8 47.4 35.5 0l171.7 171.6z" fill="#eaeaea" id="Слой_2"/><g id="Слой_4"><path class="st1" d="M196.3 156l2.2-5.1-4.2-17.1-17.4 7.5-7.5 17.4 17 4.2 7.8-4.2.7.7.6-1.5 1.9-1z"/><path fill="#f8ee98" d="M87.8 27.4l-17.4 7.4-7.5 17.5 26.1 26 15.9-8.9 25.4 25.3-8.9 16 48 48 12.4-12.4 12.5-12.5z"/><path class="st1" d="M87.8 27.4l-7.4-7.5-12.5 12.4-12.5 12.5 7.5 7.5 12.5-12.5z"/><path fill="#f4babf" d="M80.8 20.3L65.3 4.8l-25 24.9 15.6 15.5 12.4-12.4z"/><path class="st4" d="M198.5 150.9l-6.1 6-6 6 16 4z"/><path class="st5" d="M63 144.2l.4-.4-1.4-.9-1.1-1.6-.4.5-12.1-8-8.1 33.1 33.1-8.2z"/><path id="XMLID_2_" class="st5" d="M202.4 14.8l-10-10-21.9 21.9 10 10z"/><path class="st4" d="M159.1 48.1l1.5-1.5-3-1.2-2-3.7-1.9 2-10.6-4.5-94.7 94.6 12.5 12.5 12.5 12.4L168 64.1z"/><path class="st4" d="M192.9 39.2l-12.4-12.5L168 14.3l-17.4 17.4 7.5 17.4 3.2-3.2 14.2 10.7z"/><path class="st5" d="M163 44.1l-19.9-19.9L89 78.3l7.5 7.5 46.6-46.6 12.5 12.4L168 64.1l7.5-7.5z"/></g></svg>