<svg id="Layer_1" xmlns="http://www.w3.org/2000/svg" viewBox="0 0 207.6 214.4"><style>.st5{fill:#f8ee98}</style><path d="M203.6 179.5c-46.6 46.6-122.1 46.6-168.7 0s-46.6-122.1 0-168.7l168.7 168.7z" fill="#f4f4f4" id="Слой_2"/><path fill="#f4babf" d="M198.7 96.8l-80.5 77.4-80.5-77.4 80.5-77.4z"/><path d="M133.2 90c-4.1 3.1-9.2 5.1-15 5.1-5.5 0-10.9-1.9-15-5.1-11.1 5.5-18.8 16.9-18.8 30.2v11.1H152v-11.1c.1-13.4-7.7-24.9-18.8-30.2z" fill="#d98c93"/><circle cx="118.3" cy="71.9" r="16.4" fill="#fff"/><path class="st5" d="M54.7 148.1c-14.2 0-25.8 11.5-25.8 25.8h51.5c0-14.3-11.5-25.8-25.7-25.8zM181.9 148.1c-14.2 0-25.8 11.5-25.8 25.8h51.5c0-14.3-11.5-25.8-25.7-25.8zM181.9 22.3c-14.2 0-25.8 11.5-25.8 25.8h51.5c0-14.3-11.5-25.8-25.7-25.8zM54.7 22.3c-14.2 0-25.8 11.5-25.8 25.8h51.5c0-14.3-11.5-25.8-25.7-25.8z"/><circle class="st5" cx="54" cy="138.4" r="12.6"/><circle class="st5" cx="181.2" cy="138.4" r="12.6"/><circle class="st5" cx="181.2" cy="12.6" r="12.6"/><circle class="st5" cx="54" cy="12.6" r="12.6"/></svg>