<svg xmlns="http://www.w3.org/2000/svg" viewBox="0 0 158.5 124.6"><style>.st0{fill:#da8f95}</style><path class="st0" d="M136.6 15.6c-5-6-14.9-9.6-22.3-11.5C104.1 1.4 92 0 79.2 0 53.8 0 31.8 5.6 23 14.3c-.4.4-.8.8-1.2 1.3-6 7.2-5.6 15.4-5.5 17.1l.2 4H55V17.8h48.4v18.9h38.5l.2-4c.1-1.7.5-9.8-5.5-17.1z" id="Layer_1"/><g id="Слой_2"><path fill="#f7ec98" d="M10.6 119.1l53.5-75.3h30.3l53.4 75.3z"/><path d="M91.5 49.3l45.6 64.3H21.3l45.6-64.3h24.6m5.7-11h-36L0 124.6h158.5L97.2 38.3z" fill="#f4babf"/><circle class="st0" cx="79.2" cy="84.2" r="15.4"/></g></svg>