<svg xmlns="http://www.w3.org/2000/svg" viewBox="0 0 145 139.7"><style>.st1{fill:#757072}</style><path d="M139.7 115.7c-32 32-83.8 32-115.7 0S-8 32 24 0l115.7 115.7z" fill="#fdf7d1" id="Слой_2"/><g id="Слой_3"><path class="st1" d="M76.5 83.7h10.8v15.1H76.5z"/><path fill="#d98c93" d="M26.6 13.1h110.6v72.3H26.6z"/><path fill="#f8ee98" d="M49 53.1h13.2v16.5H49z"/><path fill="#f4c3c9" d="M75.2 41.4h13.2v28.2H75.2z"/><path fill="#fff" d="M102.6 30.2h13.2v39.5h-13.2z"/><path transform="rotate(90 81.84 14.106)" class="st1" d="M77.4-49.1h8.9V77.2h-8.9z"/><path transform="rotate(57.284 76.008 101.22)" class="st1" d="M72.1 90.4H80V112h-7.9z"/><path transform="scale(-1) rotate(-57.284 -185.32 159.352)" class="st1" d="M83.1 90.4H91V112h-7.9z"/></g></svg>