<svg id="Слой_3" xmlns="http://www.w3.org/2000/svg" viewBox="0 0 203.2 203.2"><style>.st1{fill:#f8ee98}</style><path d="M203.2 168.4c-46.5 46.5-121.9 46.5-168.4 0S-11.6 46.5 34.9 0l168.3 168.4z" fill="#f4f4f4"/><circle cx="118.1" cy="86.6" r="76" fill="#f4babf"/><path class="st1" d="M136.6 78.6c-5.1 3.9-11.3 6.3-18.5 6.3-6.9 0-13.4-2.4-18.5-6.3-13.7 6.9-23.3 20.9-23.3 37.3v13.7h83.6v-13.7c0-16.4-9.6-30.8-23.3-37.3z"/><circle cx="118.1" cy="56.3" r="20.3" fill="#fff"/><path fill="#d98c93" d="M145 111.4h58v53.7h-58z"/><path d="M197 111.4V93.8c0-6.1-2.4-11.9-6.7-16.3-4.3-4.3-10.1-6.7-16.3-6.7-12.7 0-23 10.3-23 23v17.6h8.2V93.8c0-8.2 6.6-14.8 14.8-14.8 4 0 7.7 1.5 10.5 4.3s4.3 6.5 4.3 10.5v17.6h8.2z" fill="#757072"/><path class="st1" d="M170 154.9l-15.1-15.2 3.7-3.8 11 11.1 19.5-24.2 4.1 3.4z"/></svg>