<svg xmlns="http://www.w3.org/2000/svg" viewBox="0 0 210.3 214.3"><style>.st2{fill:#757072}.st3{fill:#f8ee98}</style><path d="M3.1 178.7c47.4 47.4 124.2 47.4 171.6 0s47.4-124.2 0-171.6L3.1 178.7z" fill="#eaeaea" id="Слой_2"/><g id="Слой_3"><path d="M172 130.3c-6.9-19.1-10.4-39.1-10.4-59.5 0-31-25.3-56.3-56.3-56.3H72.6c-31 0-56.3 25.3-56.3 56.3 0 20.3-3.5 40.3-10.4 59.5L3.1 138h171.7l-2.8-7.7z" fill="#e0979d"/><path class="st2" d="M80.6 176.9h-28c-15 0-27.2-12.2-27.2-27.2v-30.9h10.9v30.9c0 9 7.3 16.3 16.3 16.3h28v10.9zM103.5 0H74.4C33.4 0 0 33.4 0 74.4V98h10.9V74.4c0-35 28.5-63.6 63.6-63.6h29c35 0 63.6 28.5 63.6 63.6V98H178V74.4c0-41-33.4-74.4-74.5-74.4z"/><path class="st3" d="M47.2 123.5H25.6C11.5 123.5 0 112 0 97.9s11.5-25.6 25.6-25.6h21.6v51.2zM152.3 123.5h-21.6V72.3h21.6c14.1 0 25.6 11.5 25.6 25.6s-11.4 25.6-25.6 25.6z"/><circle class="st3" cx="89" cy="171.4" r="14.5"/><path d="M89 31.6c-29.1 0-52.7 23.6-52.7 52.7v15.5c0 29.1 23.4 53.1 52.5 53.2 29.1.1 52.8-23.6 52.8-52.7v-16c0-29.1-23.5-52.7-52.6-52.7z" fill="#fff"/><path d="M161.6 90.8h-20c-31 0-56.3-25.3-56.3-56.3v-20h20c31 0 56.3 25.3 56.3 56.3v20z" fill="#f4babf"/></g></svg>