<svg id="Слой_1" xmlns="http://www.w3.org/2000/svg" viewBox="0 0 173 63"><style>.st0{fill:#d98c93}.st1{fill:#f7ec98}.st2{fill:#f4babf}</style><g id="triangle-3"><path id="Многоугольник_3-21" class="st0" d="M160.5 13L148 0h25l-12.5 13z"/><path id="Многоугольник_3-22" class="st1" d="M111.5 13L99 0h25l-12.5 13z"/><path id="Многоугольник_3-23" class="st1" d="M61.5 13L49 0h25L61.5 13z"/><path id="Многоугольник_3-24" class="st2" d="M12.5 13L0 0h25L12.5 13z"/><path id="Многоугольник_3-25" class="st0" d="M135.5 38L123 25h25l-12.5 13z"/><path id="Многоугольник_3-26" class="st1" d="M85.5 38L73 25h25L85.5 38z"/><path id="Многоугольник_3-27" class="st2" d="M36.5 38L24 25h25L36.5 38z"/><path id="Многоугольник_3-28" class="st0" d="M110.5 63L98 50h25l-12.5 13z"/><path id="Многоугольник_3-29" class="st2" d="M61.5 63L49 50h25L61.5 63z"/></g></svg>