<svg xmlns="http://www.w3.org/2000/svg" viewBox="0 0 318.8 318.8"><style>.st3{fill:#d98c93}.st4{fill:#f4babf}</style><g id="Layer_1"><path d="M318.8 264.1c-72.9 72.9-191.1 72.9-264.1 0S-18.2 72.9 54.7 0l264.1 264.1z" fill="#f4f4f4" id="Слой_2"/></g><g id="Слой_3"><path fill="#f8ee98" d="M72.8 64.8h214.8v173.3H72.8z"/><ellipse transform="rotate(-79.1 191.287 30.644)" class="st3" cx="191.3" cy="30.6" rx="25.8" ry="25.8"/><ellipse transform="rotate(-79.1 165.7 30.643)" class="st4" cx="165.7" cy="30.6" rx="25.8" ry="25.8"/><path class="st4" d="M302.2 130h-26.8V77H85v53H58.2V50.2h244z"/><path class="st3" d="M318.8 113.7c.1 0-67.9-26.1-69.6-26.8-1.3.5-69.8 26.8-69.6 26.8V163c0 34.2 9.8 78.7 69.6 95.4 59.7-16.6 69.5-62 69.5-95.4.1-16.9.1-49.3.1-49.3z"/><path fill="#fff" stroke="#757072" stroke-width="5" stroke-linejoin="round" stroke-miterlimit="10" d="M249.1 134.7l11.5 23.4 25.8 3.7-18.6 18.2 4.4 25.7-23.1-12.2-23 12.2 4.4-25.7-18.7-18.2 25.8-3.7z"/></g></svg>