<svg xmlns="http://www.w3.org/2000/svg" viewBox="0 0 153.1 155.7"><style>.st2{fill:#d98c93}.st4{fill:#f8ee98}</style><path d="M139.7 131.8c-32 32-83.8 32-115.7 0S-8 48 24 16l115.7 115.8z" fill="#fdf7d1" id="Слой_2"/><g id="Слой_4"><path d="M33 106.3l34.1-31.6c1.1-1.1 2.8-1.1 3.9 0l7.3 7.3c1.1 1.1 1.1 2.8 0 3.9L47 120.1c-2 2-4.5 3.1-7.3 3.1-5.3 0-9.8-4.5-9.8-9.8 0-2.6 1.2-5.4 3.1-7.1z" fill="#757072"/><path transform="rotate(-45.001 78.905 74.16)" class="st2" d="M73 70.2h11.8V78H73z"/><circle cx="111.1" cy="42" r="34.9" fill="#f4babf"/><path class="st2" d="M69.1 42c0 23.2 18.7 42 42 42s42-18.7 42-42-18.7-42-42-42c-23.2 0-42 18.7-42 42zm8.4 0c0-18.5 15.1-33.6 33.6-33.6s33.6 15.1 33.6 33.6-15.1 33.6-33.6 33.6S77.5 60.4 77.5 42z"/><path class="st4" d="M90.9 46h8.7v14.9h-8.7zM105.6 34.5h8.7v26.4h-8.7z"/><path fill="#fff" d="M120.2 23h8.7v37.9h-8.7z"/></g></svg>