<svg xmlns="http://www.w3.org/2000/svg" xmlns:xlink="http://www.w3.org/1999/xlink" width="30" height="30"><defs><path id="a" d="M222.335 923.527v26.992h-2.514v1.828h-6.834v-1.828h-8.36v1.828h-6.834v-1.828h-2.514v-5.183h-1.76v-6.595h1.76v-3.435h-1.76v-6.596h1.76v-5.183zm-27.233 10.2h1.76v-3.437h-1.76zm0 10.03h1.76v-3.436h-1.76zm25.65-18.65h-23.89v3.603h1.583v6.596h-1.582v3.435h1.582v6.595h-1.582v3.604h2.514v1.828h3.666v-1.828h11.528v1.828h3.667v-1.828h2.513zm-18.949 11.912c0-3.971 3.238-7.202 7.218-7.202 3.981 0 7.22 3.23 7.22 7.202 0 3.97-3.239 7.201-7.22 7.201-3.98 0-7.218-3.23-7.218-7.201zm9.144-2.879l1.707-1.704a5.83 5.83 0 0 0-2.953-1.222v2.41c.444.088.87.265 1.246.516zm1.477 2.201h2.416a5.786 5.786 0 0 0-1.225-2.946l-1.707 1.703c.252.377.428.801.516 1.243zm-2.723 6.482a5.812 5.812 0 0 0 2.953-1.222l-1.707-1.703a3.475 3.475 0 0 1-1.246.516zm2.723-5.126a3.445 3.445 0 0 1-.517 1.242l1.708 1.704a5.788 5.788 0 0 0 1.225-2.946zm-6.288 1.242a3.44 3.44 0 0 1-.518-1.242h-2.415a5.782 5.782 0 0 0 1.225 2.946zm-1.708-5.544a5.785 5.785 0 0 0-1.225 2.946h2.415a3.46 3.46 0 0 1 .518-1.243zm3.914-2.181a5.83 5.83 0 0 0-2.953 1.222l1.708 1.704a3.457 3.457 0 0 1 1.245-.516zm0 11.61v-2.41a3.464 3.464 0 0 1-1.245-.516l-1.708 1.703a5.812 5.812 0 0 0 2.953 1.222zm.68-3.698a2.112 2.112 0 0 0 2.111-2.107 2.111 2.111 0 0 0-4.223 0c0 1.162.947 2.107 2.111 2.107z"/></defs><use fill="#d37a85" xlink:href="#a" transform="translate(-193 -923)"/></svg>