<svg xmlns="http://www.w3.org/2000/svg" width="33.156" height="33.125"><path data-name="Фигура 7" d="M2.036-.009v5.961H.012v7.584h2.024v3.951H.012v7.585h2.024v5.96h2.891v2.1h7.859v-2.1h9.615v2.1h7.855v-2.1h2.9V-.009H2.036zm-.2 7.777h2.02v3.951H1.833V7.768zm0 11.535h2.02v3.951H1.833v-3.951zm29.5 9.912h-2.89v2.1h-4.217v-2.1H10.965v2.1H6.749v-2.1H3.856v-4.143h1.819v-7.585H3.856v-3.951h1.819V5.952H3.856V1.808h27.471v27.407zm-13.489-5.428a8.281 8.281 0 1 0-8.3-8.281 8.3 8.3 0 0 0 8.293 8.281zm.781-12.185V8.831a6.687 6.687 0 0 1 3.4 1.4l-1.963 1.96a4 4 0 0 0-1.444-.589zm2.538 1.7l1.964-1.959a6.651 6.651 0 0 1 1.408 3.388h-2.782a3.965 3.965 0 0 0-.6-1.433zm-2.538 6.113a3.994 3.994 0 0 0 1.433-.594l1.963 1.959a6.688 6.688 0 0 1-3.4 1.406v-2.771zm5.91-3.125a6.651 6.651 0 0 1-1.408 3.387l-1.964-1.959a3.956 3.956 0 0 0 .594-1.428h2.778zm-11.982 3.383a6.654 6.654 0 0 1-1.41-3.387h2.778a3.958 3.958 0 0 0 .6 1.428zm1.963-6.375a3.97 3.97 0 0 0-.6 1.429h-2.778a6.654 6.654 0 0 1 1.41-3.388zm2.537-1.7a4 4 0 0 0-1.431.594l-1.964-1.96a6.687 6.687 0 0 1 3.4-1.4v2.771zm-3.4 9.174l1.964-1.959a3.984 3.984 0 0 0 1.431.594v2.771a6.688 6.688 0 0 1-3.388-1.402zm1.748-5.27a2.429 2.429 0 1 1 2.429 2.423 2.43 2.43 0 0 1-2.422-2.419z" fill="#2f2f2f" fill-rule="evenodd"/></svg>