<svg xmlns="http://www.w3.org/2000/svg" xmlns:xlink="http://www.w3.org/1999/xlink" width="24" height="29"><defs><path id="a" d="M396.716 936.97c-.794 4.755-3.93 7.268-9.068 7.268h-.423c-.095 0-.383 0-.437.44l-.834 5.16c-.24 1.045-.988 1.662-1.962 1.662h-4.128c-.861 0-1.463-.6-1.463-1.458l.011-.13.229-1.383h-4.19c-.807 0-1.463-.728-1.463-1.623l.009-.121 3.344-21.753c.249-.744 1.006-1.536 1.918-1.536h8.28c3.263 0 5.583.759 6.896 2.254 1.184 1.35 1.63 2.75 1.543 4.859l.022.016-.004.041a5.107 5.107 0 0 1 1.539 2.169l.004.012c.388 1.122.447 2.508.177 4.123zm-3.361-5.5v-.016a3.978 3.978 0 0 0-.301-.15c-.889-.364-1.839-.427-2.205-.435h-7.46c-.093.003-.299.01-.376.387l-1.07 6.934c.04-.003.083-.004.125-.004h2.484c.616 0 1.2-.035 1.754-.103 3.869-.482 6.182-2.659 7.049-6.613zm-18.76 15.463h4.308l1.214-7.41 1.32-8.55c.167-.814.754-1.657 1.923-1.7h.939l-.005-.002 6.886.015a8.255 8.255 0 0 1 2.205.448c-.056-1.23-.404-2.076-1.156-2.933-.98-1.117-2.948-1.708-5.69-1.708h-8.28c-.08.008-.286.178-.38.393zm20.432-13.56a3.594 3.594 0 0 0-.33-.675c-.013.047-.03.089-.044.135-.075.252-.153.5-.24.738-.044.12-.094.23-.14.347-.065.16-.128.323-.199.477-.055.12-.116.235-.175.351-.07.14-.139.281-.214.414-.065.117-.136.226-.205.337a7.83 7.83 0 0 1-.237.372c-.074.108-.153.21-.23.313a8.806 8.806 0 0 1-.262.335c-.083.1-.17.195-.256.29a7.515 7.515 0 0 1-.568.564 7.845 7.845 0 0 1-.618.504 9.07 9.07 0 0 1-.668.446 8.15 8.15 0 0 1-.377.21 7.687 7.687 0 0 1-.753.357c-.118.05-.237.1-.359.146-.145.054-.296.103-.446.152-.124.04-.247.08-.374.117-.16.045-.325.083-.49.121-.126.03-.25.062-.38.087-.178.036-.362.064-.546.092-.125.02-.246.042-.374.058-.21.027-.426.044-.643.062-.11.009-.215.022-.327.03-.332.019-.672.03-1.02.03h-2.484c-.088.01-.32.205-.4.444l-.073.219-1.145 6.95-.186 1.133-.227 1.373 3.955.002c.129 0 .305 0 .391-.373l.818-5.063c.06-.7.657-1.826 2.024-1.826h.423c4.372 0 6.822-1.942 7.489-5.935.221-1.327.184-2.48-.11-3.334z"/></defs><use fill="#d37a85" xlink:href="#a" transform="translate(-373 -923)"/></svg>