<svg xmlns="http://www.w3.org/2000/svg" width="27.468" height="32.188"><path data-name="Фигура 4" d="M27.089 10.744v-.015a5.875 5.875 0 0 0-1.77-2.494v-.047l-.025-.018a7.219 7.219 0 0 0-1.775-5.589c-1.51-1.719-4.178-2.592-7.93-2.592H6.067a2.54 2.54 0 0 0-2.206 1.767L.012 26.772l-.01.139a1.784 1.784 0 0 0 1.682 1.867h4.819l-.263 1.591-.012.149a1.606 1.606 0 0 0 1.684 1.676h4.747a2.266 2.266 0 0 0 2.256-1.91l.959-5.935a.474.474 0 0 1 .5-.506h.486c5.909 0 9.515-2.89 10.429-8.359a9.7 9.7 0 0 0-.2-4.74zM15.32 16.765a16.346 16.346 0 0 1-2.016.118h-2.857q-.072 0-.144.006l1.231-7.976a.435.435 0 0 1 .433-.446h8.578a7.547 7.547 0 0 1 2.536.5c.092.041.211.1.346.172v.02c-.996 4.548-3.657 7.051-8.107 7.606zM5.631 2.278a.843.843 0 0 1 .436-.452h9.522c3.153 0 5.415.679 6.543 1.964a5.023 5.023 0 0 1 1.329 3.373 9.533 9.533 0 0 0-2.535-.516l-7.919-.017h-1.079a2.294 2.294 0 0 0-2.206 1.964l-1.518 9.832-1.4 8.521H1.852zm19.845 12.905c-.767 4.591-3.585 6.824-8.612 6.824h-.486a2.313 2.313 0 0 0-2.328 2.1l-.941 5.821c-.1.429-.3.429-.449.429H8.112l.26-1.579.213-1.3 1.317-7.993.084-.252a.866.866 0 0 1 .46-.511h2.857c.4 0 .791-.013 1.173-.035.128-.009.25-.024.376-.034.249-.02.5-.04.74-.07.146-.019.286-.045.429-.068.212-.032.424-.064.629-.105.149-.029.292-.066.437-.1.189-.044.379-.089.563-.14.146-.041.287-.089.429-.134.174-.056.347-.112.514-.175.141-.052.277-.111.413-.167.159-.067.318-.135.472-.209.134-.064.264-.133.394-.2.147-.078.291-.158.432-.242s.25-.154.372-.236.268-.181.4-.277.235-.176.348-.268.244-.205.363-.312.217-.2.322-.3.223-.229.331-.347.2-.218.3-.332.2-.256.3-.386.181-.237.266-.361.183-.283.272-.428c.079-.127.161-.253.235-.386.087-.154.166-.316.247-.477.067-.134.138-.264.2-.4.08-.178.153-.365.227-.55.054-.133.111-.261.161-.4.1-.274.19-.559.277-.849.015-.053.035-.1.05-.156a4.181 4.181 0 0 1 .381.777 8.085 8.085 0 0 1 .12 3.828z" fill="#2f2f2f" fill-rule="evenodd"/></svg>