<svg xmlns="http://www.w3.org/2000/svg" xmlns:xlink="http://www.w3.org/1999/xlink" width="23" height="29"><defs><path id="a" d="M571.466 929.303v19.578c0 1.443-1.186 2.619-2.643 2.619H552.12c-1.458 0-2.643-1.176-2.643-2.62v-19.577c0-1.445 1.185-2.62 2.643-2.62h2.95v-.112c0-.715.545-1.254 1.266-1.254h1.032v-.113c0-.942.774-1.708 1.725-1.708h2.757c.95 0 1.724.766 1.724 1.708v.113h1.033c.72 0 1.264.54 1.264 1.254v.112h2.952c1.457 0 2.643 1.175 2.643 2.62zm-14.784-2.39v2.502h7.579v-2.502h-2.298v-1.709a.115.115 0 0 0-.113-.111h-2.757a.116.116 0 0 0-.114.111v1.71zm13.173 2.39c0-.565-.463-1.024-1.032-1.024h-2.952v1.479c0 .714-.543 1.253-1.264 1.253h-8.27c-.722 0-1.266-.539-1.266-1.253v-1.479h-2.951c-.569 0-1.032.459-1.032 1.024v19.578a1.03 1.03 0 0 0 1.032 1.023h16.703c.57 0 1.032-.46 1.032-1.023zm-2.448 10.927c0 3.789-3.112 6.873-6.936 6.873s-6.935-3.084-6.935-6.873c0-3.79 3.111-6.872 6.935-6.872 3.824 0 6.936 3.082 6.936 6.872zm-1.611 0c0-2.909-2.389-5.276-5.325-5.276-2.935 0-5.324 2.367-5.324 5.276 0 2.91 2.389 5.276 5.324 5.276 2.936 0 5.325-2.367 5.325-5.276zm-1.9-2.738a.938.938 0 0 1-.117.716l-3.065 5.062a1 1 0 0 1-.575.426.402.402 0 0 1-.347-.045.865.865 0 0 1-.474-.254l-2.043-2.025a.884.884 0 0 1 0-1.272.908.908 0 0 1 .642-.27h.001a.91.91 0 0 1 .642.27l1.217 1.207 2.443-4.065a.887.887 0 0 1 .545-.407.948.948 0 0 1 .723.117.877.877 0 0 1 .408.54z"/></defs><use fill="#d37a85" xlink:href="#a" transform="translate(-549 -923)"/></svg>