<svg xmlns="http://www.w3.org/2000/svg" width="25.32" height="32.188"><path data-name="Фигура 5" d="M22.27 3.654h-3.4v-.128a1.412 1.412 0 0 0-1.45-1.442h-1.19v-.13a1.976 1.976 0 0 0-1.98-1.965h-3.17a1.978 1.978 0 0 0-1.99 1.965v.13H7.91a1.421 1.421 0 0 0-1.46 1.442v.128H3.06A3.028 3.028 0 0 0 .02 6.667v22.514a3.029 3.029 0 0 0 3.04 3.013h19.21a3.035 3.035 0 0 0 3.04-3.013V6.667a3.034 3.034 0 0 0-3.04-3.013zm-11.32.266V1.954a.131.131 0 0 1 .13-.128h3.17a.131.131 0 0 1 .13.128V3.92h2.64v2.874H8.3V3.918h2.65zm12.5 25.261a1.18 1.18 0 0 1-1.18 1.177H3.06a1.182 1.182 0 0 1-1.19-1.177V6.667A1.182 1.182 0 0 1 3.06 5.49h3.39v1.7a1.421 1.421 0 0 0 1.46 1.442h9.51a1.412 1.412 0 0 0 1.45-1.442v-1.7h3.4a1.18 1.18 0 0 1 1.18 1.177v22.514zm-10.79-17.85a7.9 7.9 0 1 0 7.98 7.9 7.941 7.941 0 0 0-7.98-7.9zm0 13.97a6.068 6.068 0 1 1 6.12-6.067 6.1 6.1 0 0 1-6.12 6.067zm3.47-9.837a1.083 1.083 0 0 0-.83-.134 1.044 1.044 0 0 0-.63.467l-2.81 4.675-1.4-1.387a1.032 1.032 0 0 0-.73-.311h-.01a1.031 1.031 0 0 0-.73.31 1.007 1.007 0 0 0 0 1.463l2.35 2.329a.993.993 0 0 0 .54.293.467.467 0 0 0 .4.05 1.143 1.143 0 0 0 .66-.49l3.53-5.82a1.1 1.1 0 0 0 .13-.824.979.979 0 0 0-.47-.621z" fill="#2f2f2f" fill-rule="evenodd"/></svg>