<svg xmlns="http://www.w3.org/2000/svg" width="32.188" height="29.88"><path data-name="Фигура 576" d="M30.094 24.69V12.71l1.028-.71a1.044 1.044 0 0 0 .457-.87 1.057 1.057 0 0 0-.457-.87L16.364.17a1.016 1.016 0 0 0-1.155 0L.451 10.26a1.059 1.059 0 0 0-.456.87 1.046 1.046 0 0 0 .456.87l4.755 3.26v6.38a1.047 1.047 0 0 0 .457.87l9.546 6.53a1.016 1.016 0 0 0 1.155 0l9.547-6.53a1.046 1.046 0 0 0 .456-.87v-6.38l1.885-1.29v10.72l-2.1 2.13 3.022 3.07 3.022-3.07zM15.787 2.3l12.907 8.83-3.937 2.7-8.969 6.13-8.969-6.13-3.938-2.7zM24.3 21.08l-8.513 5.83-8.513-5.83v-4.41l7.935 5.43a1.016 1.016 0 0 0 1.155 0l7.936-5.43v4.41z" fill="#b2b2b2" fill-rule="evenodd"/></svg>