<svg xmlns="http://www.w3.org/2000/svg" width="24.156" height="35.62"><path data-name="Фигура 571" d="M23.98.62a1.379 1.379 0 0 0-1.112-.58c-.689-.06-8.685-.65-11.28 4.25a47.585 47.585 0 0 0-4.574 12.22 4.837 4.837 0 0 0 1.924 4.99c-.25.86-.484 1.73-.7 2.6H3.962a1.641 1.641 0 0 0-1.629 1.65v.61a3.668 3.668 0 0 0-2.35 3.44v2.16a3.643 3.643 0 0 0 3.615 3.67h10.839a3.743 3.743 0 0 0 3.73-3.75v-2a3.759 3.759 0 0 0-2.35-3.49v-.64a1.641 1.641 0 0 0-1.629-1.65h-4.2q.241-.96.51-1.89c.016 0 .031.01.046.01a4.661 4.661 0 0 0 3.07-.34l.016-.01a4.792 4.792 0 0 0 .923-.59l.027-.02c.062-.05.123-.1.187-.16l.02-.02c.135-.13.263-.26.383-.4l.007-.01c.051-.06.1-.12.155-.19a.159.159 0 0 1 .032-.04v-.01c.042-.06.083-.11.122-.17l.038-.06c.039-.06.078-.12.116-.19a.437.437 0 0 0 .025-.04c.046-.08.09-.16.129-.24l.015-.03c.033-.07.066-.14.1-.22.008-.02.016-.03.024-.05l.006-.02c.024-.06.048-.12.07-.18a.689.689 0 0 1 .03-.08c.021-.07.041-.13.06-.19v-.02l.018-.06c.027-.1.049-.19.068-.27.781-3.61 5.945-14.69 7.538-16.6.045-.05.075-.09.089-.1a.843.843 0 0 0 .114-.13 1.342 1.342 0 0 0 .077-.12A1.037 1.037 0 0 0 23.98.62zm-9.788 27.45h.249a1.8 1.8 0 0 1 1.8 1.81v2a1.81 1.81 0 0 1-1.8 1.81H3.602a1.71 1.71 0 0 1-1.681-1.73V29.8a1.71 1.71 0 0 1 1.681-1.73h.36a.972.972 0 0 0 .967-.97.982.982 0 0 0-.662-.93v-.12h9.616v.12a.982.982 0 0 0-.662.93.972.972 0 0 0 .971.97zm.111-9.87c-.01.04-.023.1-.039.15l-.014.05c-.011.04-.023.07-.036.11a.22.22 0 0 1-.017.05c-.013.04-.027.07-.041.11l-.018.04a1.332 1.332 0 0 1-.061.13.036.036 0 0 1-.009.02l-.071.14-.016.02a1.061 1.061 0 0 1-.067.11l-.024.04c-.023.03-.046.06-.072.1l-.02.02c-.032.05-.062.08-.092.12l-.007.01c-.068.08-.142.15-.222.23l-.014.01a1.364 1.364 0 0 0-.109.1l-.014.01a3.463 3.463 0 0 1-.549.35h-.007a2.759 2.759 0 0 1-1.72.22A70.9 70.9 0 0 1 17.04 6.78a.886.886 0 0 0-.324-1.2.869.869 0 0 0-1.188.33 72.727 72.727 0 0 0-5.966 13.56 2.889 2.889 0 0 1-.655-2.54 45.521 45.521 0 0 1 4.391-11.72c1.52-2.87 5.937-3.26 8.143-3.27-2.306 3.74-6.434 13-7.138 16.26z" fill="#b2b2b2" fill-rule="evenodd"/></svg>