<svg xmlns="http://www.w3.org/2000/svg" xmlns:xlink="http://www.w3.org/1999/xlink" width="41" height="50"><defs><path id="a" d="M494.446 880.15l-.31-.085c-13.042-3.586-19.656-12.543-19.656-26.625v-13.084c-.15-.843.035-.913 4.829-2.74l8.156-3.104c3.482-1.326 6.391-2.433 6.55-2.496l.424-.166 17.181 6.543c2.781 1.061 2.94 1.122 2.792 1.963 0 .992-.003 8.864-.037 13.093 0 14.07-6.6 23.028-19.618 26.616zm-17.645-39.112v12.402c0 12.99 5.773 20.949 17.645 24.321 11.848-3.373 17.608-11.333 17.608-24.321.03-3.698.036-10.167.037-12.403-2.782-1.065-12.846-4.895-16.462-6.271l-1.181-.45c-.955.365-3.372 1.284-6.151 2.342-4.15 1.58-9.567 3.642-11.496 4.38zm17.966 26.11h-5.173l-.798-.873.067-.636.454-2.565h-3.915l-.8-.87.064-.637 2.708-15.29A2.764 2.764 0 0 1 490.11 844h5.089c2.692 0 5.005 1.724 5.83 4.103h.25l.01.265c2.43.777 4.215 3.007 4.256 5.629a5.942 5.942 0 0 1-1.746 4.313 6.052 6.052 0 0 1-4.324 1.797h-2.258l-1.178 6.003a1.295 1.295 0 0 1-1.272 1.038zm3.693-19.074a3.868 3.868 0 0 0-3.261-1.775h-5.09a.453.453 0 0 0-.448.374l-2.498 14.1h2.55l.596-3.297.477-2.695v-.309l.068-.075.716-4.044a2.765 2.765 0 0 1 2.736-2.279zm-7.1 16.774h2.562l1.382-7.04h4.17c1.012 0 1.96-.395 2.672-1.111a3.669 3.669 0 0 0 1.079-2.664c-.022-1.352-.8-2.535-1.935-3.168a5.933 5.933 0 0 1-1.492 3.163 6.096 6.096 0 0 1-4.52 2.004l-2.351.001-.288 1.592zm1.969-11.116h1.95a3.754 3.754 0 0 0 2.991-1.478 3.68 3.68 0 0 0 .741-1.879h-4.705a.453.453 0 0 0-.449.373z"/></defs><use fill="#f4babf" xlink:href="#a" transform="translate(-474 -831)"/></svg>