<svg xmlns="http://www.w3.org/2000/svg" width="29.875" height="31.06"><path data-name="Фигура 575" d="M28.952 0H.921a.84.84 0 0 0-.934.45v1.76a.849.849 0 0 0 .934.44h.934v16.82a2.088 2.088 0 0 0 1.869 2.25h10.278v5.35l-2.388 1.92a1.27 1.27 0 0 0-.259 1.56.837.837 0 0 0 1.3.31l2.282-1.83 2.286 1.83a.787.787 0 0 0 .517.19.914.914 0 0 0 .782-.5 1.271 1.271 0 0 0-.264-1.56l-2.386-1.92v-5.35H26.15a2.088 2.088 0 0 0 1.869-2.25V2.65h.934a.85.85 0 0 0 .935-.44V.45a.84.84 0 0 0-.936-.45zm-2.8 19.75H3.724V2.65h22.425v17.1zm-4.786-2.54a1.039 1.039 0 0 0 .934-1.12V7.08a.95.95 0 1 0-1.869 0v9.01a1.039 1.039 0 0 0 .932 1.12zm-6.427 0a1.039 1.039 0 0 0 .935-1.12v-4.5a.951.951 0 1 0-1.869 0v4.5a1.039 1.039 0 0 0 .932 1.12zm-6.369 0a1.039 1.039 0 0 0 .935-1.12v-2.25a.951.951 0 1 0-1.869 0v2.25a1.039 1.039 0 0 0 .931 1.12z" fill="#b2b2b2" fill-rule="evenodd"/></svg>