<svg xmlns="http://www.w3.org/2000/svg" width="27.5" height="35.66"><path data-name="Фигура 571" d="M27.202 30.45l-3.59-6.22a2.354 2.354 0 0 0-3.211-.86l-.559.32L18.6 21.5a11.822 11.822 0 1 0-1.965 1.11l1.253 2.21-.371.21a2.351 2.351 0 0 0-.86 3.21l3.591 6.22a2.339 2.339 0 0 0 3.211.86l2.883-1.66a2.354 2.354 0 0 0 .86-3.21zM9.294 21.3a9.82 9.82 0 1 1 12.027-6.94A9.834 9.834 0 0 1 9.294 21.3zm16.05 10.63l-2.884 1.66a.348.348 0 0 1-.268.04.4.4 0 0 1-.216-.17l-3.59-6.22a.353.353 0 0 1 .129-.48l2.884-1.66a.352.352 0 0 1 .484.13l3.591 6.21a.361.361 0 0 1 .035.27.355.355 0 0 1-.165.22z" fill="#b2b2b2" fill-rule="evenodd"/></svg>