<svg xmlns="http://www.w3.org/2000/svg" xmlns:xlink="http://www.w3.org/1999/xlink" width="37" height="41"><defs><path id="a" d="M869.641 869.603c-.294 0-.575-.108-.795-.305a.33.33 0 0 1-.11-.11 1.217 1.217 0 0 1 .053-1.653l.423-.425 1.927-7.102a.287.287 0 0 1 .074-.128l14.13-14.198c1.141-1.145 3.142-1.145 4.283 0l2.616 2.629a3.055 3.055 0 0 1 .001 4.302l-14.13 14.198a.285.285 0 0 1-.128.075l-7.068 1.936-.424.426c-.227.228-.53.355-.852.355zm3.213-6.708l-.847 3.12 3.104-.852zm1.088-2.332l3.49 3.507 8.998-9.041-3.489-3.507zm10.703-10.753l3.49 3.506 2.403-2.415a.617.617 0 0 0 .18-.439.62.62 0 0 0-.178-.438l-2.618-2.63a.617.617 0 0 0-.437-.172.616.616 0 0 0-.436.172zm2.978 25.808H857.76a1.15 1.15 0 0 1-1.148-1.153v-37.938a1.15 1.15 0 0 1 1.148-1.153h29.862a1.15 1.15 0 0 1 1.148 1.153v5.997h-2.296v-4.844H858.91v35.632h27.566v-13.203h2.296v14.356a1.15 1.15 0 0 1-1.148 1.153z"/></defs><use fill="#f4babf" xlink:href="#a" transform="translate(-856 -835)"/></svg>