<svg xmlns="http://www.w3.org/2000/svg" width="82.438" height="38.219"><path data-name="Фигура 587" d="M27.695 5.544l-6.034 22.26 29.081 7.723c17.823 4.765 27.566-1.018 30.136-10.582 2.293-8.539-2.638-17.525-11.194-21.35a20.525 20.525 0 0 0-5.038-1.445l-4.157-.689a34.514 34.514 0 0 0-12.112.145c-15.877 3.029.94-.179-20.682 3.938zm-6.494-1.4l-5.9 21.982-6.242-1.669a11.079 11.079 0 0 1-7.737-13.586l.132-.488a11.109 11.109 0 0 1 13.508-7.907z" fill="none" stroke="#cdcdcd" stroke-width="2" stroke-dasharray="6 4"/></svg>