<svg id="Слой_1" xmlns="http://www.w3.org/2000/svg" xmlns:xlink="http://www.w3.org/1999/xlink" viewBox="0 0 1440.9 869.6"><style>.st0{enable-background:new}.st1{fill:#f4babf}.st2{fill:#fdf7d1}</style><g class="st0"><path class="st1" d="M186.8 547.1H0v-73.6l191.8-230.9H272v238.3h58.7v66.2H272v91.7h-85.2v-91.7zm0-203.8h-1.9L70.7 480.8h116.1V343.3z"/></g><g class="st0"><path class="st1" d="M1297 547.1h-186.8v-73.6L1302 242.6h80.1v238.3h58.7v66.2h-58.7v91.7H1297v-91.7zm0-203.8h-1.9l-114.2 137.5H1297V343.3z"/></g><path class="st2" d="M434.2 127.5c-169.6 169.6-169.6 445.3 0 614.9s445.3 169.6 614.9 0 169.6-445.3 0-614.9c-169.1-170-444.9-170-614.9 0zm463.7 463.8c-86.6 86.6-226 86.6-312.6 0s-86.6-226 0-312.6 226-86.6 312.6 0c87.3 86 86.7 226 0 312.6z"/><defs><path id="SVGID_1_" d="M626.3 550.3c0-.1 0-.1 0 0-1.7-1.7-3.2-3.3-4.7-4.9-.2-.2-.3-.4-.5-.5-1.5-1.6-2.9-3.3-4.4-5-.1-.1-.2-.3-.4-.4-3-3.5-5.8-7.2-8.4-10.9-1.3-1.8-2.5-3.7-3.7-5.6-.1-.1-.2-.3-.3-.4-1.2-1.9-2.4-3.8-3.5-5.7 0 0 0-.1-.1-.1-2.3-3.9-4.3-7.8-6.3-11.9 0-.1-.1-.1-.1-.2s0-.1-.1-.2C565 443.7 575.7 368.9 626 318.6c63.9-63.9 167.6-63.9 231.6 0 5.9 5.9 11.3 12.2 16.1 18.7l175.2-209.8c-16.3-16.3-33.5-31.1-51.5-44.3C827.9-40.9 587.9-26.2 434.2 127.5c-169.6 169.6-169.6 445.3 0 614.9 18.7 18.7 38.7 35.4 59.8 50l176-210.9c-15.7-7.7-30.5-18.1-43.7-31.2z"/></defs><clipPath id="SVGID_2_"><use xlink:href="#SVGID_1_" overflow="visible"/></clipPath><path d="M434.2 127.5c-169.6 169.6-169.6 445.3 0 614.9s445.3 169.6 614.9 0 169.6-445.3 0-614.9c-169.1-170-444.9-170-614.9 0zm463.7 463.8c-86.6 86.6-226 86.6-312.6 0s-86.6-226 0-312.6 226-86.6 312.6 0c87.3 86 86.7 226 0 312.6z" clip-path="url(#SVGID_2_)" fill="#f9dce0"/><path class="st1" d="M440.6 533.5l-26.9 47.1c-4.8 8.6-1 20.2 8.6 25.9 9.6 5.8 21.6 3.4 26.4-5.3l26.9-47.1c4.8-8.6 1-20.2-8.6-25.9-9.6-5.7-21.6-3.3-26.4 5.3zM896.1 118.3c-8.6-8.6-21.6-9.1-29.8-1-8.2 8.2-7.7 21.1 1 29.8l36.5 36.5c8.6 8.6 21.6 9.1 29.8 1 8.2-8.2 7.7-21.1-1-29.8l-36.5-36.5z"/><path class="st2" d="M411 298.6c-10.1 2.4-15.9 12-13 21.6l17.3 52.8c2.9 9.6 13.9 15.9 24 13.5s15.9-12 13-21.6L435 312c-3.4-9.1-13.5-15.3-24-13.4zM708.5 148.2L723.4 93c2.4-10.1 13.5-16.3 24-13.5C758 82.4 763.7 93 761.3 103l-14.9 55.2c-2.4 10.1-13.5 16.3-24 13.5-10.5-2.8-16.8-13.9-13.9-23.5z"/><path d="M574.1 180.1l-53.3 12c-9.6 1.9-20.2-3.8-23.5-13.9-3.4-10.1 2.4-19.7 12.5-22.1l53.3-12c9.6-1.9 20.2 3.8 23.5 13.9 2.9 9.6-2.9 19.2-12.5 22.1z" fill="#fff"/></svg>