<svg xmlns="http://www.w3.org/2000/svg" xmlns:xlink="http://www.w3.org/1999/xlink" width="1976" height="640" viewBox="0 0"><defs><path id="a" d="M1761.32 6361.998c30.763 87.109-14.913 182.662-102.021 213.427-87.109 30.764-182.663-14.911-213.427-102.02-30.765-87.109 14.911-182.662 102.02-213.427 87.108-30.765 182.663 14.912 213.427 102.02z"/><path id="b" d="M172.812 6069.812c117.913 0 213.5 95.587 213.5 213.5s-95.587 213.5-213.5 213.5c-117.912 0-213.5-95.587-213.5-213.5s95.588-213.5 213.5-213.5z"/><path id="e" d="M137.797 5948c85.44 0 154.703 69.263 154.703 154.703s-69.263 154.703-154.703 154.703-154.703-69.263-154.703-154.703S52.357 5948 137.797 5948z"/><path id="f" d="M319.838 6310.145c26.79-26.79 70.226-26.79 97.015 0 26.79 26.79 26.79 70.225 0 97.015l-97.015-97.015z"/><path id="g" d="M156.7 6233.424L257.675 6334.4 156.7 6435.373 55.725 6334.4z"/><path id="h" d="M1598 6354l42.7 42.7-42.7 42.7-42.7-42.7z"/><path id="i" d="M1670.69 6437.19v-238h249.22v238z"/><path id="j" d="M397.848 6386.899l-10.89 10.889-23.758-23.759-23.76 23.759-10.888-10.89 23.94-23.94-.072-.072-23.518-23.371 10.779-10.712 23.519 23.371 23.519-23.371 10.779 10.712-23.519 23.37-.072.072z"/><path id="k" d="M1766.69 6342.82v-16.63h36.59v-36.6h16.63v53.23z"/><path id="l" d="M1928.585 6020.842c19.696 55.76-9.547 116.925-65.316 136.618-55.769 19.692-116.945-9.546-136.64-65.305-19.697-55.76 9.546-116.925 65.315-136.618 55.769-19.692 116.945 9.545 136.641 65.305z"/><path id="m" d="M164.28 6354.56v-27.71h-27.75v-12.63h40.34v40.34z"/><path id="n" d="M75.495 5962.694l-18.2 17.501v-35.002z"/><path id="o" d="M75.495 6031.294l-18.2 17.501v-35.002z"/><path id="p" d="M75.495 6101.294l-18.2 17.501v-35.002z"/><path id="q" d="M75.495 6169.894l-18.2 17.5v-35z"/><path id="r" d="M110.495 5997.694l-18.2 17.501v-35.002z"/><path id="s" d="M110.495 6067.694l-18.2 17.501v-35.002z"/><path id="t" d="M110.495 6136.294l-18.2 17.501v-35.002z"/><path id="u" d="M145.495 6032.694l-18.2 17.501v-35.002z"/><path id="v" d="M145.495 6101.294l-18.2 17.501v-35.002z"/><path id="w" d="M180.495 6067.694l-18.2 17.501v-35.002z"/><path id="x" d="M1670.105 6302.903l18.2-17.5v35.002z"/><path id="y" d="M1670.105 6234.303l18.2-17.5v35.001z"/><path id="z" d="M1670.105 6164.303l18.2-17.501v35.003z"/><path id="A" d="M1670.105 6095.704l18.2-17.502v35.002z"/><path id="B" d="M1635.105 6267.903l18.2-17.5v35.001z"/><path id="C" d="M1635.105 6197.903l18.2-17.501v35.003z"/><path id="D" d="M1635.105 6129.303l18.2-17.5v35.002z"/><path id="E" d="M1600.105 6232.903l18.2-17.5v35.001z"/><path id="F" d="M1600.105 6164.303l18.2-17.501v35.003z"/><path id="G" d="M1565.105 6197.903l18.2-17.501v35.003z"/><path id="H" d="M1865.05 5991.633a7.7 7.7 0 1 1-7.702 13.337 7.7 7.7 0 0 1 7.702-13.337z"/><path id="I" d="M1842.65 6030.431a7.7 7.7 0 1 1-7.7 13.337 7.7 7.7 0 0 1 7.7-13.337z"/><path id="J" d="M1820.25 6069.229a7.7 7.7 0 1 1-7.702 13.338 7.7 7.7 0 0 1 7.702-13.338z"/><path id="K" d="M1797.85 6108.027a7.7 7.7 0 1 1-7.702 13.337 7.7 7.7 0 0 1 7.702-13.337z"/><clipPath id="c"><use fill="#fff" xlink:href="#a"/></clipPath><clipPath id="d"><use fill="#fff" xlink:href="#b"/></clipPath></defs><use fill="#fff" fill-opacity="0" stroke="#7b7577" stroke-miterlimit="50" stroke-width="6" clip-path="url(&quot;#c&quot;)" xlink:href="#a" opacity=".5" transform="translate(41 -5945)"/><use fill="#fff" fill-opacity="0" stroke="#7b7577" stroke-miterlimit="50" stroke-width="6" clip-path="url(&quot;#d&quot;)" xlink:href="#b" opacity=".5" transform="translate(41 -5945)"/><use fill="#f8ee98" xlink:href="#e" transform="translate(41 -5945)"/><use fill="#f8ee98" xlink:href="#f" transform="translate(41 -5945)"/><use fill="#fff" xlink:href="#g" transform="translate(41 -5945)"/><use fill="#fff" xlink:href="#h" transform="translate(41 -5945)"/><use fill="#f8ee98" xlink:href="#i" transform="translate(41 -5945)"/><use fill="#757072" xlink:href="#j" transform="translate(41 -5945)"/><use fill="#757072" xlink:href="#k" transform="translate(41 -5945)"/><use fill="#fff" xlink:href="#l" transform="translate(41 -5945)"/><use fill="#757072" xlink:href="#m" transform="translate(41 -5945)"/><use fill="#757072" xlink:href="#n" transform="translate(41 -5945)"/><use fill="#757072" xlink:href="#o" transform="translate(41 -5945)"/><use fill="#757072" xlink:href="#p" transform="translate(41 -5945)"/><use fill="#757072" xlink:href="#q" transform="translate(41 -5945)"/><use fill="#757072" xlink:href="#r" transform="translate(41 -5945)"/><use fill="#757072" xlink:href="#s" transform="translate(41 -5945)"/><use fill="#757072" xlink:href="#t" transform="translate(41 -5945)"/><use fill="#757072" xlink:href="#u" transform="translate(41 -5945)"/><use fill="#757072" xlink:href="#v" transform="translate(41 -5945)"/><use fill="#757072" xlink:href="#w" transform="translate(41 -5945)"/><g><use fill="#757072" xlink:href="#x" transform="translate(41 -5945)"/><use fill="#757072" xlink:href="#y" transform="translate(41 -5945)"/><use fill="#757072" xlink:href="#z" transform="translate(41 -5945)"/><use fill="#757072" xlink:href="#A" transform="translate(41 -5945)"/><use fill="#757072" xlink:href="#B" transform="translate(41 -5945)"/><use fill="#757072" xlink:href="#C" transform="translate(41 -5945)"/><use fill="#757072" xlink:href="#D" transform="translate(41 -5945)"/><use fill="#757072" xlink:href="#E" transform="translate(41 -5945)"/><use fill="#757072" xlink:href="#F" transform="translate(41 -5945)"/><use fill="#757072" xlink:href="#G" transform="translate(41 -5945)"/></g><g><use fill="#757072" xlink:href="#H" transform="translate(41 -5945)"/><use fill="#757072" xlink:href="#I" transform="translate(41 -5945)"/><use fill="#757072" xlink:href="#J" transform="translate(41 -5945)"/><use fill="#757072" xlink:href="#K" transform="translate(41 -5945)"/></g></svg>