<svg xmlns="http://www.w3.org/2000/svg" xmlns:xlink="http://www.w3.org/1999/xlink" width="2185" height="1207"><defs><path id="a" d="M168.5-185.187c142.265 0 257.594 115.328 257.594 257.593C426.094 214.671 310.765 330 168.5 330S-89.094 214.67-89.094 72.406 26.235-185.187 168.5-185.187z"/><path id="b" d="M1919.297 71.812C2016.335 71.812 2095 150.47 2095 247.5c0 97.03-78.665 175.687-175.703 175.687S1743.594 344.53 1743.594 247.5c0-97.03 78.665-175.688 175.703-175.688z"/><path id="e" d="M153.11 184.406c106.702 0 193.202 86.5 193.202 193.203s-86.5 193.203-193.203 193.203-193.203-86.5-193.203-193.203 86.5-193.203 193.203-193.203z"/><path id="f" d="M47.439 923.15c26.79-26.789 70.225-26.789 97.015 0 26.79 26.79 26.79 70.226 0 97.016l-97.015-97.015z"/><path id="g" d="M1893.39-64c106.704 0 193.204 86.5 193.204 193.203s-86.5 193.203-193.203 193.203c-106.704 0-193.204-86.5-193.204-193.203S1786.687-64 1893.391-64z"/><path id="h" d="M181.09 318.81v-46.22h-46.18v-21h67.19v21h-.01v46.22z"/><path id="i" d="M.5 779.4V636.59h142.81V779.4z"/><path id="j" d="M1676.41 858.59v-350h249.19v350z"/><path id="k" d="M125.448 999.905l-10.89 10.89-23.758-23.76-23.759 23.76-10.89-10.89 23.76-23.76.182-.182-.073-.071-23.518-23.372 10.78-10.712L90.8 965.18l23.519-23.372 10.78 10.712-23.52 23.371-.072.072.182.182z"/><path id="l" d="M1834.6 953.81v21h-46.19V1021h-21v-67.19z"/><path id="m" d="M108.295 397.9l-18.2 17.502v-35.003z"/><path id="n" d="M108.295 466.5l-18.2 17.5v-35z"/><path id="o" d="M108.295 536.5l-18.2 17.501V519z"/><path id="p" d="M108.295 605.1l-18.2 17.501V587.6z"/><path id="q" d="M143.295 432.9l-18.2 17.501V415.4z"/><path id="r" d="M143.295 502.9l-18.2 17.501V485.4z"/><path id="s" d="M143.295 571.5l-18.2 17.5v-35z"/><path id="t" d="M178.295 467.9l-18.2 17.5v-35z"/><path id="u" d="M178.295 536.5l-18.2 17.501V519z"/><path id="v" d="M213.295 502.9l-18.2 17.501V485.4z"/><path id="w" d="M1817.105 789.993l-17.502-18.2h35.003z"/><path id="x" d="M1748.505 789.993l-17.501-18.2h35.002z"/><path id="y" d="M1678.505 789.993l-17.502-18.2h35.003z"/><path id="z" d="M1609.905 789.993l-17.502-18.2h35.003z"/><path id="A" d="M1782.105 824.994l-17.501-18.2h35.002z"/><path id="B" d="M1712.105 824.994l-17.501-18.2h35.002z"/><path id="C" d="M1643.505 824.994l-17.501-18.2h35.002z"/><path id="D" d="M1747.104 859.993l-17.5-18.2h35.002z"/><path id="E" d="M1678.505 859.993l-17.502-18.2h35.003z"/><path id="F" d="M1712.105 894.993l-17.501-18.2h35.002z"/><path id="G" d="M1839.15 142.032a7.7 7.7 0 1 1-7.702 13.338 7.7 7.7 0 0 1 7.702-13.338z"/><path id="H" d="M1816.75 180.831a7.7 7.7 0 1 1-7.7 13.337 7.7 7.7 0 1 1 7.7-13.337z"/><path id="I" d="M1794.35 219.628a7.701 7.701 0 0 1-7.7 13.337 7.701 7.701 0 0 1 7.7-13.337z"/><path id="J" d="M1771.95 258.427a7.7 7.7 0 1 1-7.701 13.337 7.7 7.7 0 0 1 7.7-13.337z"/><path id="K" d="M20.09 685.6v-4.19h383.59v4.19z"/><path id="L" d="M20.09 710.81v-4.22h383.59v4.22z"/><path id="M" d="M20.09 736v-4.19h383.59V736z"/><path id="N" d="M342.088 749.551l42.047 32.593-73.763 95.159-42.047-32.594z"/><path id="O" d="M282.528 853.808l42.047 32.592-73.764 95.159-42.046-32.594z"/><path id="P" d="M403.82 735.343l-6.284 59.05-49.334-38.242z"/><path id="Q" d="M403.776 734.452l-1.785 16.774-.382 3.592c-.021-.225-17.327-13.227-17.39-12.965-2.019 1.184 19.557-7.401 19.557-7.401z"/><path id="R" d="M1528 553.41v-4.22h383.59v4.22z"/><path id="S" d="M1528 578.6v-4.19h383.59v4.19z"/><path id="T" d="M1528 603.81v-4.22h383.59v4.22z"/><path id="U" d="M1606.401 534.985l-41.945-32.617 73.586-95.228 41.946 32.618z"/><path id="V" d="M1668.599 430.656l-41.946-32.617 73.586-95.227 41.946 32.617z"/><path id="W" d="M1544.81 550.603l6.27-59.092 49.216 38.27z"/><path id="X" d="M1544.855 551.494l1.78-16.786.382-3.596c.021.226 17.285 13.237 17.348 12.976 2.014-1.185-19.51 7.406-19.51 7.406z"/><clipPath id="c"><use fill="#fff" xlink:href="#a"/></clipPath><clipPath id="d"><use fill="#fff" xlink:href="#b"/></clipPath></defs><use fill="#fff" fill-opacity="0" stroke="#7b7577" stroke-miterlimit="50" stroke-width="6" clip-path="url(&quot;#c&quot;)" xlink:href="#a" opacity=".5" transform="translate(90 186)"/><use fill="#fff" fill-opacity="0" stroke="#7b7577" stroke-miterlimit="50" stroke-width="6" clip-path="url(&quot;#d&quot;)" xlink:href="#b" opacity=".5" transform="translate(90 186)"/><use fill="#f8ee98" xlink:href="#e" transform="translate(90 186)"/><use fill="#f8ee98" xlink:href="#f" transform="translate(90 186)"/><use fill="#f4babf" xlink:href="#g" transform="translate(90 186)"/><use fill="#757072" xlink:href="#h" transform="translate(90 186)"/><use fill="#f4babf" xlink:href="#i" transform="translate(90 186)"/><use fill="#f8ee98" xlink:href="#j" transform="translate(90 186)"/><use fill="#757072" xlink:href="#k" transform="translate(90 186)"/><use fill="#757072" xlink:href="#l" transform="translate(90 186)"/><use fill="#757072" xlink:href="#m" transform="translate(90 186)"/><use fill="#757072" xlink:href="#n" transform="translate(90 186)"/><use fill="#757072" xlink:href="#o" transform="translate(90 186)"/><use fill="#757072" xlink:href="#p" transform="translate(90 186)"/><use fill="#757072" xlink:href="#q" transform="translate(90 186)"/><use fill="#757072" xlink:href="#r" transform="translate(90 186)"/><use fill="#757072" xlink:href="#s" transform="translate(90 186)"/><use fill="#757072" xlink:href="#t" transform="translate(90 186)"/><use fill="#757072" xlink:href="#u" transform="translate(90 186)"/><use fill="#757072" xlink:href="#v" transform="translate(90 186)"/><g><use fill="#757072" xlink:href="#w" transform="translate(90 186)"/><use fill="#757072" xlink:href="#x" transform="translate(90 186)"/><use fill="#757072" xlink:href="#y" transform="translate(90 186)"/><use fill="#757072" xlink:href="#z" transform="translate(90 186)"/><use fill="#757072" xlink:href="#A" transform="translate(90 186)"/><use fill="#757072" xlink:href="#B" transform="translate(90 186)"/><use fill="#757072" xlink:href="#C" transform="translate(90 186)"/><use fill="#757072" xlink:href="#D" transform="translate(90 186)"/><use fill="#757072" xlink:href="#E" transform="translate(90 186)"/><use fill="#757072" xlink:href="#F" transform="translate(90 186)"/></g><g><use fill="#757072" xlink:href="#G" transform="translate(90 186)"/><use fill="#757072" xlink:href="#H" transform="translate(90 186)"/><use fill="#757072" xlink:href="#I" transform="translate(90 186)"/><use fill="#757072" xlink:href="#J" transform="translate(90 186)"/></g><g><use fill="#757072" xlink:href="#K" transform="translate(90 186)"/><use fill="#757072" xlink:href="#L" transform="translate(90 186)"/><use fill="#757072" xlink:href="#M" transform="translate(90 186)"/><g><use fill="#d98c93" xlink:href="#N" transform="translate(90 186)"/><use fill="#f4babf" xlink:href="#O" transform="translate(90 186)"/><use fill="#f8ee98" xlink:href="#P" transform="translate(90 186)"/><use fill="#757072" xlink:href="#Q" transform="translate(90 186)"/></g></g><g><use fill="#757072" xlink:href="#R" transform="translate(90 186)"/><use fill="#757072" xlink:href="#S" transform="translate(90 186)"/><use fill="#757072" xlink:href="#T" transform="translate(90 186)"/><use fill="#d98c93" xlink:href="#U" transform="translate(90 186)"/><use fill="#f4babf" xlink:href="#V" transform="translate(90 186)"/><g transform="translate(90 186)"><use fill="#f8ee98" xlink:href="#W"/></g><g transform="translate(90 186)"><use fill="#757072" xlink:href="#X"/></g></g></svg>