<svg id="Слой_1" xmlns="http://www.w3.org/2000/svg" viewBox="0 0 768 495.4"><style>.st0{opacity:.5;fill:none;stroke:#7b7577;stroke-width:3;enable-background:new}.st1{fill:#f4babf}.st2{fill:#f8ee98}.st3{fill:#757072}</style><g id="illustration-2"><circle id="Эллипс_1-6" class="st0" cx="708.5" cy="312.5" r="139.5"/><circle id="Эллипс_1-7" class="st0" cx="97" cy="114" r="167"/><circle id="Эллипс_1-8" class="st1" cx="719" cy="94" r="138"/><path id="Эллипс_1-9" class="st2" d="M239.5 301.7c19.1-19.1 50.2-19.1 69.3 0 19.1 19.1 19.1 50.2 0 69.3l-69.3-69.3z"/><circle id="Эллипс_1-10" class="st2" cx="11" cy="353" r="138"/><path id="Прямоугольник_8-2" class="st2" d="M669 367h100v130H669z"/><path id="Прямоугольник_9-18" class="st3" d="M726.2 412.8h12v38.4h-12v-38.4zm-26.4 0h38.4v12h-38.4v-12z"/><path id="Прямоугольник_10-3" class="st1" d="M207 100h102v102H207z"/><path id="Прямоугольник_9-19" class="st3" d="M270.5 331.8l24.7 24.8-7.8 7.8-24.7-24.7 7.8-7.9zm0 0l7.8 7.8-24.7 24.7-7.8-7.8 24.7-24.7zm0 15.2l24.5-24.3-7.7-7.7-24.5 24.3 7.7 7.7zm0 0l7.7-7.7-24.5-24.3-7.7 7.7 24.5 24.3z"/><path id="Прямоугольник_9-20" class="st3" d="M38 269h38v11.9H38V269zm26.1 0H76v38H64.1v-38z"/><g id="triangle-3"><path id="Многоугольник_3-17" class="st3" d="M27.2 339.3l-10.4 10v-20l10.4 10z"/><path id="Многоугольник_3-18" class="st3" d="M27.2 378.5l-10.4 10v-20l10.4 10z"/><path id="Многоугольник_3-19" class="st3" d="M27.2 418.5l-10.4 10v-20l10.4 10z"/><path id="Многоугольник_3-20" class="st3" d="M27.2 457.7l-10.4 10v-20l10.4 10z"/><path id="Многоугольник_3-21" class="st3" d="M47.2 359.3l-10.4 10v-20l10.4 10z"/><path id="Многоугольник_3-22" class="st3" d="M47.2 399.3l-10.4 10v-20l10.4 10z"/><path id="Многоугольник_3-23" class="st3" d="M47.2 438.5l-10.4 10v-20l10.4 10z"/><path id="Многоугольник_3-24" class="st3" d="M67.2 379.3l-10.4 10v-20l10.4 10z"/><path id="Многоугольник_3-25" class="st3" d="M67.2 418.5l-10.4 10v-20l10.4 10z"/><path id="Многоугольник_3-26" class="st3" d="M87.2 399.3l-10.4 10v-20l10.4 10z"/></g><g id="Circles"><path id="Эллипс_2" class="st3" d="M720.8 70.6c2.1 1.2 2.8 3.9 1.6 6-1.2 2.1-3.9 2.8-6 1.6-2.1-1.2-2.8-3.9-1.6-6 1.2-2.1 3.9-2.8 6-1.6z"/><path id="Эллипс_2-2" class="st3" d="M708.1 92.7c2.1 1.2 2.8 3.9 1.6 6-1.2 2.1-3.9 2.8-6 1.6-2.1-1.2-2.8-3.9-1.6-6 1.2-2.1 3.9-2.8 6-1.6z"/><path id="Эллипс_2-3" class="st3" d="M695.3 114.7c2.1 1.2 2.8 3.9 1.6 6-1.2 2.1-3.9 2.8-6 1.6-2.1-1.2-2.8-3.9-1.6-6 1.2-2 3.9-2.8 6-1.6z"/><path id="Эллипс_2-4" class="st3" d="M682.6 136.8c2.1 1.2 2.8 3.9 1.6 6s-3.9 2.8-6 1.6c-2.1-1.2-2.8-3.9-1.6-6 1.2-2.1 3.9-2.8 6-1.6z"/></g><g id="Pen"><g id="lines"><path id="Прямоугольник_7" class="st3" d="M246 133h274v3H246z"/><path id="Прямоугольник_7-2" class="st3" d="M246 151h274v3H246z"/><path id="Прямоугольник_7-3" class="st3" d="M246 169h274v3H246z"/></g><g id="Группа_1"><path id="Прямоугольник_6" d="M476 181.7l30 23.3-52.7 68-30-23.3 52.7-68z" fill="#d98c93"/><path id="Прямоугольник_6-2" class="st1" d="M433.4 256.1l30 23.3-52.7 68-30-23.3 52.7-68z"/><path id="Многоугольник_1" class="st2" d="M520.1 171.5l-4.5 42.2-35.2-27.3 39.7-14.9z"/><path id="Многоугольник_1-2" class="st3" d="M520.1 170.9s-.6 5.2-1.3 12c-.1.8-.2 1.7-.3 2.6 0-.2-12.4-9.4-12.4-9.3-1.5.8 14-5.3 14-5.3z"/></g></g></g></svg>