<svg xmlns="http://www.w3.org/2000/svg" xmlns:xlink="http://www.w3.org/1999/xlink" width="860" height="468"><defs><path id="a" d="M674.64 47.406c69.338 0 125.547 56.21 125.547 125.547 0 69.338-56.209 125.547-125.546 125.547-69.338 0-125.547-56.21-125.547-125.547 0-69.338 56.209-125.547 125.547-125.547z"/><path id="b" d="M121.594-129c74.058 0 134.093 60.036 134.093 134.094 0 74.057-60.035 134.093-134.093 134.093C47.536 139.187-12.5 79.151-12.5 5.094-12.5-68.964 47.536-129 121.594-129z"/><path id="e" d="M684.11-75.906c68.595 0 124.203 55.608 124.203 124.203S752.705 172.5 684.109 172.5c-68.595 0-124.203-55.608-124.203-124.203S615.514-75.906 684.11-75.906z"/><path id="f" d="M252.575 235.207c17.222-17.222 45.145-17.222 62.367 0 17.222 17.222 17.222 45.145 0 62.367l-62.367-62.367z"/><path id="g" d="M73.89 85.187c68.596 0 124.204 55.608 124.204 124.204 0 68.595-55.608 124.203-124.203 124.203-68.596 0-124.203-55.608-124.203-124.203 0-68.596 55.607-124.204 124.203-124.204z"/><path id="h" d="M639.09 339V222h90v117z"/><path id="i" d="M690.56 297.78v-23.75h-23.72v-10.81h34.53v34.56z"/><path id="j" d="M223.31 163.5V71.69h91.78v91.81z"/><path id="k" d="M302.724 284.55l-7 7-15.274-15.275-15.274 15.274-7-7 15.274-15.274.117-.117-15.166-15.07 6.93-6.887 15.119 15.025 15.12-15.025 6.929 6.886-15.166 15.07.117.118z"/><path id="l" d="M98.19 144.5v-10.69h34.22V168h-10.69v-23.5z"/><path id="m" d="M88.477 197.067l-9.36 9v-18.001z"/><path id="n" d="M88.477 232.346l-9.36 9.001v-18z"/><path id="o" d="M88.477 268.347l-9.36 9v-18.001z"/><path id="p" d="M88.477 303.627l-9.36 9v-18.001z"/><path id="q" d="M106.477 215.066l-9.36 9.001v-18z"/><path id="r" d="M106.477 251.067l-9.36 9v-18.001z"/><path id="s" d="M106.477 286.346l-9.36 9.001v-18z"/><path id="t" d="M124.477 233.067l-9.36 9v-18z"/><path id="u" d="M124.477 268.347l-9.36 9v-18.001z"/><path id="v" d="M142.477 251.067l-9.36 9v-18.001z"/><path id="w" d="M685.728 27.222a3.945 3.945 0 0 1-3.943 6.832 3.944 3.944 0 0 1 3.943-6.832z"/><path id="x" d="M674.257 47.097a3.944 3.944 0 1 1-3.945 6.83 3.944 3.944 0 0 1 3.945-6.83z"/><path id="y" d="M662.786 66.97a3.945 3.945 0 0 1-3.943 6.832 3.945 3.945 0 0 1 3.943-6.832z"/><path id="z" d="M651.315 86.844a3.945 3.945 0 0 1-3.944 6.832 3.945 3.945 0 0 1 3.944-6.832z"/><path id="A" d="M258.41 104.1v-2.69H505v2.69z"/><path id="B" d="M258.41 120.31v-2.72H505v2.72z"/><path id="C" d="M258.41 136.5v-2.69H505v2.69z"/><path id="D" d="M465.392 145.208l27.03 20.952-47.419 61.173-27.03-20.952z"/><path id="E" d="M427.104 212.23l27.03 20.952-47.42 61.173-27.03-20.953z"/><path id="F" d="M505.077 136.074l-4.04 37.96-31.715-24.584z"/><path id="G" d="M505.049 135.5l-1.148 10.784-.245 2.309c-.014-.144-11.139-8.503-11.18-8.334-1.297.76 12.573-4.758 12.573-4.758z"/><clipPath id="c"><use fill="#fff" xlink:href="#a"/></clipPath><clipPath id="d"><use fill="#fff" xlink:href="#b"/></clipPath></defs><use fill="#fff" fill-opacity="0" stroke="#7b7577" stroke-miterlimit="50" stroke-width="6" clip-path="url(&quot;#c&quot;)" xlink:href="#a" opacity=".5" transform="translate(51 129)"/><use fill="#fff" fill-opacity="0" stroke="#7b7577" stroke-miterlimit="50" stroke-width="6" clip-path="url(&quot;#d&quot;)" xlink:href="#b" opacity=".5" transform="translate(51 129)"/><use fill="#f4babf" xlink:href="#e" transform="translate(51 129)"/><use fill="#f8ee98" xlink:href="#f" transform="translate(51 129)"/><use fill="#f8ee98" xlink:href="#g" transform="translate(51 129)"/><use fill="#f8ee98" xlink:href="#h" transform="translate(51 129)"/><use fill="#757072" xlink:href="#i" transform="translate(51 129)"/><use fill="#f4babf" xlink:href="#j" transform="translate(51 129)"/><use fill="#757072" xlink:href="#k" transform="translate(51 129)"/><use fill="#757072" xlink:href="#l" transform="translate(51 129)"/><use fill="#757072" xlink:href="#m" transform="translate(51 129)"/><use fill="#757072" xlink:href="#n" transform="translate(51 129)"/><use fill="#757072" xlink:href="#o" transform="translate(51 129)"/><use fill="#757072" xlink:href="#p" transform="translate(51 129)"/><use fill="#757072" xlink:href="#q" transform="translate(51 129)"/><use fill="#757072" xlink:href="#r" transform="translate(51 129)"/><use fill="#757072" xlink:href="#s" transform="translate(51 129)"/><use fill="#757072" xlink:href="#t" transform="translate(51 129)"/><use fill="#757072" xlink:href="#u" transform="translate(51 129)"/><use fill="#757072" xlink:href="#v" transform="translate(51 129)"/><g transform="translate(51 129)"><use fill="#757072" xlink:href="#w"/></g><g transform="translate(51 129)"><use fill="#757072" xlink:href="#x"/></g><g transform="translate(51 129)"><use fill="#757072" xlink:href="#y"/></g><g transform="translate(51 129)"><use fill="#757072" xlink:href="#z"/></g><g><use fill="#757072" xlink:href="#A" transform="translate(51 129)"/><use fill="#757072" xlink:href="#B" transform="translate(51 129)"/><use fill="#757072" xlink:href="#C" transform="translate(51 129)"/></g><g><use fill="#d98c93" xlink:href="#D" transform="translate(51 129)"/><use fill="#f4babf" xlink:href="#E" transform="translate(51 129)"/><use fill="#f8ee98" xlink:href="#F" transform="translate(51 129)"/><use fill="#757072" xlink:href="#G" transform="translate(51 129)"/></g></svg>