<svg id="Call_to_action" xmlns="http://www.w3.org/2000/svg" viewBox="0 0 450 517"><style>.st1{fill:#f8ee98}.st3{fill:#757072}</style><g id="illustration"><ellipse id="Эллипс_1-2" cx="172.8" cy="359.7" rx="213.5" ry="213.5" opacity=".5" fill="none" stroke="#7b7577" stroke-width="3"/><ellipse id="Эллипс_1-3" class="st1" cx="137.8" cy="179.1" rx="154.7" ry="154.7"/><path id="Прямоугольник_10" d="M156.7 309.8l101 101-101 101-101-101 101-101z" fill="#fff"/><path id="Прямоугольник_9" class="st3" d="M363.2 428.7l34.6 34.6-10.8 10.9-34.6-34.6 10.8-10.9zm0 21.3l34.3-34.1-10.8-10.7-34.3 34.1 10.8 10.7z"/><path id="Прямоугольник_9-3" class="st3" d="M164.3 390.6h12.6V431h-12.6v-40.4zm-27.8 0h40.3v12.6h-40.3v-12.6z"/><g id="triangle"><path id="Многоугольник_3" class="st3" d="M75.5 39.1L57.3 56.6v-35l18.2 17.5z"/><path id="Многоугольник_3-2" class="st3" d="M75.5 107.7l-18.2 17.5v-35l18.2 17.5z"/><path id="Многоугольник_3-3" class="st3" d="M75.5 177.7l-18.2 17.5v-35l18.2 17.5z"/><path id="Многоугольник_3-4" class="st3" d="M75.5 246.3l-18.2 17.5v-35l18.2 17.5z"/><path id="Многоугольник_3-5" class="st3" d="M110.5 74.1L92.3 91.6v-35l18.2 17.5z"/><path id="Многоугольник_3-6" class="st3" d="M110.5 144.1l-18.2 17.5v-35l18.2 17.5z"/><path id="Многоугольник_3-7" class="st3" d="M110.5 212.7l-18.2 17.5v-35l18.2 17.5z"/><path id="Многоугольник_3-8" class="st3" d="M145.5 109.1l-18.2 17.5v-35l18.2 17.5z"/><path id="Многоугольник_3-9" class="st3" d="M145.5 177.7l-18.2 17.5v-35l18.2 17.5z"/><path id="Многоугольник_3-10" class="st3" d="M180.5 144.1l-18.2 17.5v-35l18.2 17.5z"/></g></g><path id="Эллипс_553" class="st1" d="M321.3 402.6c22.8-22.8 59.8-22.8 82.6 0s22.8 59.8 0 82.6c-16.5-16.4-18.1-18-40.9-40.8-22.8-22.8-30-30-41.7-41.8z"/><path id="Прямоугольник_9-19" class="st3" d="M373.6 442.7l.1.3 23.8 23.8-10.9 10.9-23.8-23.9-23.8 23.8-10.9-10.9 23.8-23.8.2-.2-.1-.1-23.5-23.4 10.8-10.7 23.5 23.4 23.5-23.4 10.8 10.7-23.5 23.5z"/></svg>