<svg id="Call_to_action" xmlns="http://www.w3.org/2000/svg" viewBox="1290 -5 600 517"><style>.st1{fill:#fff}.st3{fill:#757072}</style><g id="illustration"><path id="Эллипс_1" d="M1761.3 438.4c30.8 87.1-14.9 182.7-102 213.4s-182.7-14.9-213.4-102c-30.8-87.1 14.9-182.7 102-213.4 87.1-30.8 182.7 14.9 213.4 102z" opacity=".5" fill="none" stroke="#7b7577" stroke-width="3"/><path id="Прямоугольник_10-2" class="st1" d="M1598 430.4l42.7 42.7-42.7 42.7-42.7-42.7 42.7-42.7z"/><path id="Прямоугольник_8" fill="#f8ee98" d="M1670.7 275.6h249.2v238h-249.2z"/><path id="Прямоугольник_9-2" class="st3" d="M1766.7 402.6h53.2v16.6h-53.2v-16.6zm36.6-36.6h16.6v53.2h-16.6V366z"/><circle id="Эллипс_1-5" class="st1" cx="1827.6" cy="132.9" r="107.1"/><g id="triangle-2"><path id="Многоугольник_3-11" class="st3" d="M1670.1 379.3l18.2-17.5v35l-18.2-17.5z"/><path id="Многоугольник_3-12" class="st3" d="M1670.1 310.7l18.2-17.5v35l-18.2-17.5z"/><path id="Многоугольник_3-13" class="st3" d="M1670.1 240.7l18.2-17.5v35l-18.2-17.5z"/><path id="Многоугольник_3-14" class="st3" d="M1670.1 172.1l18.2-17.5v35l-18.2-17.5z"/><path id="Многоугольник_3-15" class="st3" d="M1635.1 344.3l18.2-17.5v35l-18.2-17.5z"/><path id="Многоугольник_3-16" class="st3" d="M1635.1 274.3l18.2-17.5v35l-18.2-17.5z"/><path id="Многоугольник_3-17" class="st3" d="M1635.1 205.7l18.2-17.5v35l-18.2-17.5z"/><path id="Многоугольник_3-18" class="st3" d="M1600.1 309.3l18.2-17.5v35l-18.2-17.5z"/><path id="Многоугольник_3-19" class="st3" d="M1600.1 240.7l18.2-17.5v35l-18.2-17.5z"/><path id="Многоугольник_3-20" class="st3" d="M1565.1 274.3l18.2-17.5v35l-18.2-17.5z"/></g><g id="Circles"><path id="Эллипс_2" class="st3" d="M1865.1 68c3.7 2.1 4.9 6.8 2.8 10.5-2.1 3.7-6.8 4.9-10.5 2.8-3.7-2.1-4.9-6.8-2.8-10.5 2.1-3.6 6.8-4.9 10.5-2.8z"/><circle id="Эллипс_2-2" class="st3" cx="1838.8" cy="113.5" r="7.7"/><path id="Эллипс_2-3" class="st3" d="M1820.3 145.6c3.7 2.1 4.9 6.8 2.8 10.5-2.1 3.7-6.8 4.9-10.5 2.8-3.7-2.1-4.9-6.8-2.8-10.5 2.1-3.6 6.8-4.9 10.5-2.8z"/><circle id="Эллипс_2-4" class="st3" cx="1794" cy="191.1" r="7.7"/></g></g></svg>