<svg id="Слой_1" xmlns="http://www.w3.org/2000/svg" viewBox="0 0"><style>.st1{fill:#f8ee98}.st2{fill:#757072}.st3{fill:#f4babf}</style><circle id="Эллипс_1-6" cx="168.5" cy="72.4" r="257.6" opacity=".5" fill="none" stroke="#7b7577" stroke-width="3"/><circle id="Эллипс_1-8" class="st1" cx="153.1" cy="377.6" r="193.2"/><path id="Эллипс_553" class="st1" d="M49.3 935.8c22.8-22.8 59.8-22.8 82.6 0s22.8 59.8 0 82.6c-16.5-16.4-18.1-18-40.9-40.8s-30-30-41.7-41.8z"/><path id="Прямоугольник_9-18" class="st2" d="M181.1 251.6h21v67.2h-21v-67.2zm-46.2 0h67.2v21h-67.2v-21z"/><path id="Прямоугольник_10-3" class="st3" d="M.5 636.6h142.8v142.8H.5z"/><path id="Прямоугольник_9-19" class="st2" d="M101.6 975.9l.1.3 23.8 23.8-10.9 10.9L90.8 987 67 1010.8l-10.9-10.9 23.8-23.8.2-.2-.1-.1-23.5-23.4 10.8-10.7 23.5 23.4 23.5-23.4 10.8 10.7-23.5 23.5z"/><g id="triangle-3"><path id="Многоугольник_3-21" class="st2" d="M108.3 397.9l-18.2 17.5v-35l18.2 17.5z"/><path id="Многоугольник_3-22" class="st2" d="M108.3 466.5L90.1 484v-35l18.2 17.5z"/><path id="Многоугольник_3-23" class="st2" d="M108.3 536.5L90.1 554v-35l18.2 17.5z"/><path id="Многоугольник_3-24" class="st2" d="M108.3 605.1l-18.2 17.5v-35l18.2 17.5z"/><path id="Многоугольник_3-25" class="st2" d="M143.3 432.9l-18.2 17.5v-35l18.2 17.5z"/><path id="Многоугольник_3-26" class="st2" d="M143.3 502.9l-18.2 17.5v-35l18.2 17.5z"/><path id="Многоугольник_3-27" class="st2" d="M143.3 571.5L125.1 589v-35l18.2 17.5z"/><path id="Многоугольник_3-28" class="st2" d="M178.3 467.9l-18.2 17.5v-35l18.2 17.5z"/><path id="Многоугольник_3-29" class="st2" d="M178.3 536.5L160.1 554v-35l18.2 17.5z"/><path id="Многоугольник_3-30" class="st2" d="M213.3 502.9l-18.2 17.5v-35l18.2 17.5z"/></g><g id="Pen"><g id="lines"><path id="Прямоугольник_7" class="st2" d="M20.1 681.4h383.6v4.2H20.1z"/><path id="Прямоугольник_7-2" class="st2" d="M20.1 706.6h383.6v4.2H20.1z"/><path id="Прямоугольник_7-3" class="st2" d="M20.1 731.8h383.6v4.2H20.1z"/></g><g id="Группа_1"><path id="Прямоугольник_6" d="M342.1 749.6l42 32.6-73.8 95.2-42-32.6 73.8-95.2z" fill="#d98c93"/><path id="Прямоугольник_6-2" class="st3" d="M282.5 853.8l42 32.6-73.8 95.2-42-32.6 73.8-95.2z"/><path id="Многоугольник_1" class="st1" d="M403.8 735.3l-6.3 59-49.3-38.2 55.6-20.8z"/><path id="Многоугольник_1-2" class="st2" d="M403.8 734.5s-.8 7.3-1.8 16.8c-.1 1.2-.3 2.4-.4 3.6 0-.2-17.3-13.2-17.4-13-2 1.1 19.6-7.4 19.6-7.4z"/></g></g></svg>