<svg id="Слой_1" xmlns="http://www.w3.org/2000/svg" viewBox="0 0"><style>.st1{fill:#f4babf}.st2{fill:#f8ee98}.st3{fill:#757072}</style><circle id="Эллипс_1-7" cx="1919.3" cy="247.5" r="175.7" opacity=".5" fill="none" stroke="#7b7577" stroke-width="3"/><ellipse id="Эллипс_1-9" transform="rotate(-45.001 1893.398 129.226)" class="st1" cx="1893.4" cy="129.2" rx="193.2" ry="193.2"/><path id="Прямоугольник_8-2" class="st2" d="M1676.4 508.6h249.2v350h-249.2z"/><path id="Прямоугольник_9-20" class="st3" d="M1767.4 953.8h67.2v21h-67.2v-21zm0 0h21v67.2h-21v-67.2z"/><g id="triangle-4"><path id="Многоугольник_3-31" class="st3" d="M1817.1 790l-17.5-18.2h35l-17.5 18.2z"/><path id="Многоугольник_3-32" class="st3" d="M1748.5 790l-17.5-18.2h35l-17.5 18.2z"/><path id="Многоугольник_3-33" class="st3" d="M1678.5 790l-17.5-18.2h35l-17.5 18.2z"/><path id="Многоугольник_3-34" class="st3" d="M1609.9 790l-17.5-18.2h35l-17.5 18.2z"/><path id="Многоугольник_3-35" class="st3" d="M1782.1 825l-17.5-18.2h35l-17.5 18.2z"/><path id="Многоугольник_3-36" class="st3" d="M1712.1 825l-17.5-18.2h35l-17.5 18.2z"/><path id="Многоугольник_3-37" class="st3" d="M1643.5 825l-17.5-18.2h35l-17.5 18.2z"/><path id="Многоугольник_3-38" class="st3" d="M1747.1 860l-17.5-18.2h35l-17.5 18.2z"/><path id="Многоугольник_3-39" class="st3" d="M1678.5 860l-17.5-18.2h35l-17.5 18.2z"/><path id="Многоугольник_3-40" class="st3" d="M1712.1 895l-17.5-18.2h35l-17.5 18.2z"/></g><g id="Circles-2"><path id="Эллипс_2-5" class="st3" d="M1839.2 142c3.7 2.1 4.9 6.8 2.8 10.5s-6.8 4.9-10.5 2.8c-3.7-2.1-4.9-6.8-2.8-10.5 2.1-3.6 6.8-4.9 10.5-2.8z"/><path id="Эллипс_2-6" class="st3" d="M1816.8 180.8c3.7 2.1 4.9 6.8 2.8 10.5-2.1 3.7-6.8 4.9-10.5 2.8-3.7-2.1-4.9-6.8-2.8-10.5 2.1-3.6 6.8-4.9 10.5-2.8z"/><circle id="Эллипс_2-7" class="st3" cx="1790.5" cy="226.3" r="7.7"/><circle id="Эллипс_2-8" class="st3" cx="1768.1" cy="265.1" r="7.7"/></g><g id="Pen_right"><g id="lines-2"><path id="Прямоугольник_7-4" class="st3" d="M1528 549.2h383.6v4.2H1528z"/><path id="Прямоугольник_7-5" class="st3" d="M1528 574.4h383.6v4.2H1528z"/><path id="Прямоугольник_7-6" class="st3" d="M1528 599.6h383.6v4.2H1528z"/></g><path id="Прямоугольник_6-3" d="M1606.4 535l-41.9-32.6 73.6-95.2 41.9 32.6-73.6 95.2z" fill="#d98c93"/><path id="Прямоугольник_6-4" class="st1" d="M1668.6 430.7l-41.9-32.6 73.6-95.2 41.9 32.6-73.6 95.2z"/><path id="Многоугольник_1-3" class="st2" d="M1544.8 550.6l6.3-59.1 49.2 38.3-55.5 20.8z"/><path id="Многоугольник_1-4" class="st3" d="M1544.8 551.5s.8-7.3 1.8-16.8c.1-1.2.3-2.4.4-3.6 0 .2 17.3 13.2 17.3 13 2.1-1.2-19.5 7.4-19.5 7.4z"/></g></svg>