<svg id="Слой_1" xmlns="http://www.w3.org/2000/svg" viewBox="0 0 80.3 114.8"><style>.st1,.st3{fill:#f4babf}.st3{display:none}</style><g id="banner_250"><circle id="Эллипс_1-6" cx="49" cy="-19.8" r="50" opacity=".3" fill="none" stroke="#908b8d" stroke-width="2"/><path id="Прямоугольник_8-2" class="st1" d="M39.3-19.7H103v61.3H39.3v-61.3z"/><path id="Эллипс_1-7" class="st1" d="M114 92.9c5.8-16.4-2.9-34.4-19.3-40.2-16.4-5.8-34.4 2.8-40.2 19.3-5.8 16.4 2.9 34.4 19.3 40.2 16.4 5.7 34.4-2.9 40.2-19.3z"/><path id="Эллипс_1-9" class="st3" d="M-208.4 120.6c23.2 0 42 18.8 42 42s-18.8 42-42 42-42-18.8-42-42 18.8-42 42-42z"/><ellipse id="Эллипс_1-10" transform="rotate(-3.17 -143.473 232.412) scale(1.00003)" class="st3" cx="-143.5" cy="232.4" rx="19.2" ry="19.2"/></g></svg>