<svg id="Слой_1" xmlns="http://www.w3.org/2000/svg" viewBox="0 0 77.8 132.3"><style>.st1{display:none}.st1,.st3{fill:#f4babf}</style><g id="banner_250"><path id="Прямоугольник_8-2" class="st1" d="M240.3-138.2H304v61.3h-63.7v-61.3z"/><path id="Эллипс_1-7" class="st1" d="M315-25.6c5.8-16.4-2.9-34.4-19.3-40.2-16.4-5.8-34.4 2.9-40.2 19.3-5.8 16.4 2.9 34.4 19.3 40.2 16.4 5.7 34.4-2.9 40.2-19.3z"/><path id="Эллипс_1-8" d="M-4.2 57.2c32 0 58 26 57.9 58 0 32-25.9 57.9-57.9 57.9s-58-26-57.9-58c0-32 25.9-57.9 57.9-57.9z" opacity=".3" fill="none" stroke="#7b7577" stroke-width="2"/><path id="Эллипс_1-9" class="st3" d="M-7.4 2.1c23.2 0 42 18.8 42 42s-18.8 42-42 42-42-18.8-42-42 18.8-42 42-42z"/><ellipse id="Эллипс_1-10" transform="rotate(-3.17 57.533 113.909) scale(1.00003)" class="st3" cx="57.5" cy="113.9" rx="19.2" ry="19.2"/></g></svg>