<svg id="Слой_1" xmlns="http://www.w3.org/2000/svg" viewBox="0 0 142.1 200.7"><style>.st1{fill:#f6c4c8}.st3{fill:#757072}.st5,.st7,.st9{display:none;fill:#f8ee98}.st7,.st9{fill:#757072}.st9{display:inline}</style><g id="banner_200"><path id="Эллипс_1-16" d="M156.2 157.2c13.4 38-6.6 79.5-44.5 92.9s-79.5-6.6-92.9-44.5c-13.4-37.9 6.6-79.5 44.5-92.9 37.9-13.3 79.5 6.6 92.9 44.5z" opacity=".5" fill="none" stroke="#908b8d" stroke-width="2"/><path id="Прямоугольник_10-7" class="st1" d="M16 151l15.9 16L16 183 .1 167 16 151z"/><path id="Прямоугольник_8-4" fill="#f8ee98" d="M73.3 92.3h92.8v89.1H73.3z"/><path id="Прямоугольник_9-10" class="st3" d="M99.8 140.6h19.8v6.2H99.8v-6.2zm13.6-13.7h6.2v19.9h-6.2v-19.9z"/><path id="Эллипс_1-17" class="st1" d="M161.7 16.2c8.4 23.9-4.1 50.1-28 58.6-23.9 8.4-50.1-4.1-58.6-28-8.4-23.9 4.1-50.1 28-58.6 24-8.5 50.2 4.1 58.6 28z"/><path id="Эллипс_2-13" class="st3" d="M125.4 11.3c1.4.8 1.9 2.5 1.1 3.9s-2.5 1.9-3.9 1.1-1.9-2.5-1.1-3.9c.8-1.4 2.6-1.9 3.9-1.1z"/><circle id="Эллипс_2-14" class="st3" cx="115.7" cy="28.3" r="2.9"/><circle id="Эллипс_2-15" class="st3" cx="107.3" cy="42.9" r="2.9"/><circle id="Эллипс_2-16" class="st3" cx="99" cy="57.4" r="2.9"/><circle id="Эллипс_1-19" class="st5" cx="-565.3" cy="64.1" r="53.4"/><circle id="Эллипс_1-20" class="st5" cx="-482.4" cy="153" r="24.5"/><path id="Прямоугольник_9-11" class="st7" d="M-488.8 154.5l14.5 14.5-4.6 4.6-14.5-14.5 4.6-4.6zm0 0l4.6 4.6-14.5 14.5-4.6-4.6 14.5-14.5zm0 9l14.3-14.3-4.5-4.5-14.3 14.3 4.5 4.5zm0 0l4.5-4.5-14.3-14.3-4.5 4.5 14.3 14.3z"/><path id="Прямоугольник_9-12" class="st7" d="M-559.1 152.3h4.3v14h-4.3v-14zm-9.6 0h13.9v4.4h-13.9v-4.4z"/><g id="triangle-7"><path id="Многоугольник_3-61" class="st3" d="M44.8 134.9l6.8-6.6v13.1l-6.8-6.5z"/><path id="Многоугольник_3-62" class="st3" d="M44.8 109.2l6.8-6.6v13.1l-6.8-6.5z"/><path id="Многоугольник_3-63" class="st3" d="M44.8 83l6.8-6.6v13.1L44.8 83z"/><path id="Многоугольник_3-64" class="st3" d="M44.8 57.3l6.8-6.6v13.1l-6.8-6.5z"/><path id="Многоугольник_3-65" class="st3" d="M31.8 121.8l6.8-6.6v13.1l-6.8-6.5z"/><path id="Многоугольник_3-66" class="st3" d="M31.8 95.6l6.8-6.6v13.1l-6.8-6.5z"/><path id="Многоугольник_3-67" class="st3" d="M31.8 69.9l6.8-6.6v13.1l-6.8-6.5z"/><path id="Многоугольник_3-68" class="st3" d="M18.8 108.7l6.8-6.6v13.1l-6.8-6.5z"/><path id="Многоугольник_3-69" class="st3" d="M18.8 83l6.8-6.6v13.1L18.8 83z"/><path id="Многоугольник_3-70" class="st3" d="M5.7 95.6l6.8-6.6v13.1l-6.8-6.5z"/></g></g><path id="Эллипс_553" class="st5" d="M-505.1 142.8c9.2-9.2 24.1-9.2 33.3 0s9.2 24.1 0 33.3c-6.7-6.6-7.3-7.3-16.5-16.5-9.2-9.1-12.1-12-16.8-16.8z"/><path id="Прямоугольник_9-19" class="st7" d="M-484 159v.1l9.6 9.6-4.4 4.4-9.6-9.6-9.6 9.6-4.4-4.4 9.6-9.6.1-.1-9.5-9.4 4.4-4.3 9.5 9.4 9.5-9.4 4.4 4.3-9.6 9.4z"/></svg>