<svg id="Слой_1" xmlns="http://www.w3.org/2000/svg" viewBox="0 0 386 712"><style>.st6{fill:#757072}.st8{fill:#f4babf}.st9{fill:#f8ee98}</style><g id="illustration-2"><g id="right"><path id="Эллипс_1-23" d="M393.7 53.3c97.4 0 176.3 78.9 176.3 176.3s-78.9 176.3-176.3 176.3S217.3 327 217.3 229.6s79-176.3 176.4-176.3z" opacity=".5" fill="none" stroke="#7b7577" stroke-width="3"/><ellipse id="Эллипс_1-24" class="st8" cx="367.7" cy="111" rx="193.9" ry="193.9"/><path id="Прямоугольник_8-5" class="st9" d="M149.9 483.2H400v230.4H149.9V483.2z"/><g id="Circles-2"><circle id="Эллипс_2-17" class="st6" cx="309.4" cy="130.5" r="7.7"/><path id="Эллипс_2-18" class="st6" d="M290.7 162.8c3.7 2.1 5 6.9 2.8 10.6-2.1 3.7-6.9 5-10.6 2.8-3.7-2.1-5-6.9-2.8-10.6 2.2-3.7 6.9-5 10.6-2.8z"/><circle id="Эллипс_2-19" class="st6" cx="264.4" cy="208.4" r="7.7"/><path id="Эллипс_2-20" class="st6" d="M245.8 240.6c3.7 2.1 5 6.9 2.8 10.6s-6.9 5-10.6 2.8c-3.7-2.1-5-6.9-2.8-10.6 2.2-3.6 6.9-4.9 10.6-2.8z"/></g><g id="Pen_right"><g id="lines"><path id="Прямоугольник_7" class="st6" d="M.9 532.4h385v4.2H.9z"/><path id="Прямоугольник_7-2" class="st6" d="M.9 557.7h385v4.2H.9z"/><path id="Прямоугольник_7-3" class="st6" d="M.9 582.9h385v4.2H.9z"/></g><path id="Прямоугольник_6" d="M79.6 518.1l-42.1-32.7 73.8-95.6 42.1 32.7-73.8 95.6z" fill="#d98c93"/><path id="Прямоугольник_6-2" class="st8" d="M142.1 413.4L100 380.7l73.9-95.6 42.1 32.7-73.9 95.6z"/><path id="Многоугольник_1" class="st9" d="M17.8 533.8l6.3-59.3 49.4 38.4-55.7 20.9z"/><path id="Многоугольник_1-2" class="st6" d="M17.9 534.7s.8-7.3 1.8-16.8c.1-1.2.3-2.4.4-3.6 0 .2 17.3 13.3 17.4 13 2-1.2-19.6 7.4-19.6 7.4z"/></g></g></g></svg>