<svg id="Слой_1" xmlns="http://www.w3.org/2000/svg" viewBox="0 0 59 76.2"><style>.st2,.st4{fill:#f8ee98}.st4{display:none}</style><g id="banner_150"><circle id="Эллипс_1" cx="35.1" cy="-18.7" r="35.1" opacity=".3" fill="none" stroke="#908b8d" stroke-width="2"/><path id="Прямоугольник_8" class="st2" d="M28.2-18.6h44.6v42.9H28.2v-42.9z"/><path id="Эллипс_1-2" class="st2" d="M80.6 60.2c4-11.5-2-24.1-13.5-28.2-11.5-4-24.1 2-28.2 13.5-4 11.5 2 24.1 13.5 28.2 11.5 4 24.1-2 28.2-13.5z"/><path id="Эллипс_1-4" class="st4" d="M-221.8 58.3c16.2 0 29.4 13.1 29.5 29.3 0 16.2-13.1 29.4-29.3 29.5S-251 104-251.1 87.8v-.1c0-16.2 13.1-29.4 29.3-29.4z"/><ellipse id="Эллипс_1-5" transform="rotate(-3.17 -176.348 136.57) scale(1.00003)" class="st4" cx="-176.3" cy="136.6" rx="13.4" ry="13.4"/></g></svg>