<svg id="Слой_1" xmlns="http://www.w3.org/2000/svg" viewBox="0 0 87 128.8"><style>.st2,.st4{fill:#f8ee98}.st4{display:none}</style><circle id="Эллипс_1-11" cx="56.1" cy="-25.7" r="57.1" opacity=".3" fill="none" stroke="#908b8d" stroke-width="2"/><path id="Прямоугольник_8-3" class="st2" d="M45-25.7h72.7v69.9H45v-69.9z"/><path id="Эллипс_1-12" class="st2" d="M124.3 103.9c6.6-18.7-3.3-39.3-22-45.9-18.7-6.6-39.3 3.3-45.9 22-6.6 18.7 3.2 39.3 22 45.9 18.7 6.6 39.2-3.3 45.9-22z"/><path id="Эллипс_1-14" class="st4" d="M-194.7 72.6c23.2-.1 42.1 18.7 42.1 41.9.1 23.2-18.7 42.1-41.9 42.1-23.2.1-42.1-18.7-42.1-41.9v-.1c-.1-23.1 18.7-42 41.9-42z"/><circle id="Эллипс_1-15" class="st4" cx="-129.8" cy="184.4" r="19.2"/></svg>