<svg id="Слой_1" xmlns="http://www.w3.org/2000/svg" viewBox="0 0 142.5 191.2"><style>.st1,.st2,.st3{display:none;fill:#f6c4c8}.st2,.st3{fill:#f8ee98}.st3{fill:#757072}.st5{fill:#f8ee98}.st7,.st9{fill:#757072}.st9{display:inline}</style><g id="banner_200"><path id="Прямоугольник_10-7" class="st1" d="M622.7 141.5l15.9 16-15.9 16-15.9-16 15.9-16z"/><path id="Прямоугольник_8-4" class="st2" d="M679.9 82.8h92.8v89.1h-92.8z"/><path id="Прямоугольник_9-10" class="st3" d="M706.4 131.1h19.8v6.2h-19.8v-6.2zm13.7-13.7h6.2v19.9h-6.2v-19.9z"/><path id="Эллипс_1-17" class="st1" d="M768.4 6.7c8.4 23.9-4.1 50.1-28 58.6-23.9 8.4-50.1-4.1-58.6-28-8.4-23.9 4.1-50.1 28-58.6s50.1 4.1 58.6 28z"/><path id="Эллипс_2-13" class="st3" d="M732.1 1.8c1.4.8 1.9 2.5 1.1 3.9s-2.5 1.9-3.9 1.1-1.9-2.5-1.1-3.9c.8-1.4 2.5-1.9 3.9-1.1z"/><circle id="Эллипс_2-14" class="st3" cx="722.3" cy="18.8" r="2.9"/><circle id="Эллипс_2-15" class="st3" cx="714" cy="33.4" r="2.9"/><circle id="Эллипс_2-16" class="st3" cx="705.7" cy="47.9" r="2.9"/><path id="Эллипс_1-18" d="M45.5 71.2c40.8-.1 74 32.9 74.1 73.7s-32.9 74-73.7 74.1-74-32.9-74.1-73.7v-.2c-.1-40.8 32.9-73.9 73.7-73.9z" opacity=".5" fill="none" stroke="#7b7577" stroke-width="2"/><circle id="Эллипс_1-19" class="st5" cx="41.4" cy="54.6" r="53.4"/><circle id="Эллипс_1-20" class="st2" cx="124.3" cy="143.5" r="24.5"/><path id="Прямоугольник_10-8" d="M44.9 114.8l34.9 35-34.9 35-34.9-35 34.9-35z" fill="#f6c4c8"/><path id="Прямоугольник_9-11" class="st3" d="M117.9 145l14.5 14.5-4.6 4.6-14.5-14.5 4.6-4.6zm0 0l4.6 4.6-14.5 14.5-4.6-4.6 14.5-14.5zm0 9l14.3-14.3-4.5-4.5-14.3 14.3 4.5 4.5zm0 0l4.5-4.5-14.3-14.3-4.5 4.5 14.3 14.3z"/><path id="Прямоугольник_9-12" class="st7" d="M47.6 142.8h4.3v14h-4.3v-14zm-9.6 0h13.9v4.4H38v-4.4z"/><g id="triangle-8"><path id="Многоугольник_3-71" class="st7" d="M29.9 16.1l-6.3 6.1V10l6.3 6.1z"/><path id="Многоугольник_3-72" class="st7" d="M29.9 39.8l-6.3 6.1V33.8l6.3 6z"/><path id="Многоугольник_3-73" class="st7" d="M29.9 64.1l-6.3 6.1V58l6.3 6.1z"/><path id="Многоугольник_3-74" class="st7" d="M29.9 87.8l-6.3 6.1V81.8l6.3 6z"/><path id="Многоугольник_3-75" class="st7" d="M42 28.2l-6.3 6.1V22.1l6.3 6.1z"/><path id="Многоугольник_3-76" class="st7" d="M42 52.4l-6.3 6.1V46.4l6.3 6z"/><path id="Многоугольник_3-77" class="st7" d="M42 76.2l-6.3 6.1V70.1l6.3 6.1z"/><path id="Многоугольник_3-78" class="st7" d="M54.1 40.3l-6.3 6.1V34.3l6.3 6z"/><path id="Многоугольник_3-79" class="st7" d="M54.1 64.1l-6.3 6.1V58l6.3 6.1z"/><path id="Многоугольник_3-80" class="st7" d="M66.2 52.4l-6.3 6.1V46.4l6.3 6z"/></g></g><path id="Эллипс_553" class="st5" d="M101.5 133.3c9.2-9.2 24.1-9.2 33.3 0s9.2 24.1 0 33.3c-6.7-6.6-7.3-7.3-16.5-16.5l-16.8-16.8z"/><path id="Прямоугольник_9-19" class="st7" d="M122.6 149.5v.1l9.6 9.6-4.4 4.4-9.6-9.6-9.6 9.6-4.4-4.4 9.6-9.6.1-.1-9.5-9.4 4.4-4.3 9.5 9.4 9.5-9.4 4.4 4.3-9.6 9.4z"/></svg>