<svg id="Слой_1" xmlns="http://www.w3.org/2000/svg" viewBox="0 0 84.3 127.5"><style>.st2{display:none}.st2,.st4{fill:#f8ee98}</style><path id="Прямоугольник_8-3" class="st2" d="M239.3-97.7H312v69.9h-72.7v-69.9z"/><path id="Эллипс_1-12" class="st2" d="M318.6 31.9c6.6-18.7-3.3-39.3-22-45.9-18.7-6.6-39.3 3.3-45.9 22-6.6 18.7 3.2 39.3 22 45.9 18.8 6.6 39.3-3.3 45.9-22z"/><path id="Эллипс_1-13" d="M2.8 55.7c32-.1 58.1 25.8 58.1 57.8s-25.8 58.1-57.8 58.1S-55 145.8-55 113.8v-.2c0-31.9 25.8-57.9 57.8-57.9z" opacity=".3" fill="none" stroke="#7b7577" stroke-width="2"/><path id="Эллипс_1-14" class="st4" d="M-.4.6C22.8.5 41.7 19.3 41.7 42.5 41.8 65.7 23 84.6-.2 84.6c-23.1.1-42-18.6-42.1-41.8v-.1C-42.3 19.5-23.6.6-.4.6z"/><circle id="Эллипс_1-15" class="st4" cx="64.5" cy="112.4" r="19.2"/></svg>