<svg id="Слой_1" xmlns="http://www.w3.org/2000/svg" viewBox="0 0 60.7 150.2"><style>.st2{display:none}.st2,.st4{fill:#f8ee98}</style><g id="banner_150"><path id="Прямоугольник_8" class="st2" d="M249.6-18.6h44.6v42.9h-44.6v-42.9z"/><path id="Эллипс_1-2" class="st2" d="M301.9 60.2c4-11.5-2-24.1-13.5-28.2-11.5-4-24.1 2-28.2 13.5-4 11.5 2 24.1 13.5 28.2 11.6 4 24.1-2 28.2-13.5z"/><path id="Эллипс_1-3" d="M1.8 96.8c22.4-.1 40.6 18 40.7 40.5.1 22.4-18 40.6-40.5 40.7s-40.6-18-40.7-40.5v-.1c0-22.4 18.1-40.5 40.5-40.6z" opacity=".3" fill="none" stroke="#7b7577" stroke-width="2"/><path id="Эллипс_1-4" class="st4" d="M-.5 58.3C15.8 58.3 29 71.4 29 87.6c0 16.2-13.1 29.4-29.3 29.5S-29.7 104-29.8 87.8v-.1c0-16.2 13.1-29.4 29.3-29.4z"/><ellipse id="Эллипс_1-5" transform="rotate(-3.17 44.991 136.568) scale(1.00003)" class="st4" cx="45" cy="136.6" rx="13.4" ry="13.4"/></g></svg>