<svg id="Слой_1" xmlns="http://www.w3.org/2000/svg" viewBox="0 0 414 712"><style>.st2{fill:#757072}</style><g id="illustration-2"><g id="left"><ellipse id="Эллипс_1-21" cx="149.5" cy="29.5" rx="258.5" ry="258.5" opacity=".5" fill="none" stroke="#7b7577" stroke-width="3"/><ellipse id="Эллипс_1-22" cx="134.1" cy="335.7" rx="193.9" ry="193.9" fill="#f8ee98"/><path id="Прямоугольник_9-15" class="st2" d="M162.2 209.3h21.1v67.4h-21.1v-67.4zm-46.4 0h67.4v21.1h-67.4v-21.1z"/><path id="Прямоугольник_10-9" d="M52.6 643.3h71.7v70.3H52.6z" fill="#f4babf"/><g id="triangle-9"><path id="Многоугольник_3-81" class="st2" d="M89.1 356.1l-18.3 17.6v-35.1l18.3 17.5z"/><path id="Многоугольник_3-82" class="st2" d="M89.1 424.9l-18.3 17.6v-35.1l18.3 17.5z"/><path id="Многоугольник_3-83" class="st2" d="M89.1 495.1l-18.3 17.6v-35.1l18.3 17.5z"/><path id="Многоугольник_3-84" class="st2" d="M89.1 564l-18.3 17.6v-35.1L89.1 564z"/><path id="Многоугольник_3-85" class="st2" d="M124.2 391.2L106 408.8v-35.1l18.2 17.5z"/><path id="Многоугольник_3-86" class="st2" d="M124.2 461.4L106 479v-35.1l18.2 17.5z"/><path id="Многоугольник_3-87" class="st2" d="M124.2 530.3L106 547.8v-35.1l18.2 17.6z"/><path id="Многоугольник_3-88" class="st2" d="M159.4 426.3l-18.3 17.6v-35.1l18.3 17.5z"/><path id="Многоугольник_3-89" class="st2" d="M159.4 495.1l-18.3 17.6v-35.1l18.3 17.5z"/><path id="Многоугольник_3-90" class="st2" d="M194.5 461.4L176.2 479v-35.1l18.3 17.5z"/></g></g></g></svg>